<svg id="Camada_2" data-name="Camada 2" xmlns="http://www.w3.org/2000/svg" xmlns:xlink="http://www.w3.org/1999/xlink" viewBox="0 0 1555 1107"><defs><style>.cls-1{font-size:19.88px;}.cls-1,.cls-10,.cls-14,.cls-15,.cls-16{font-family:SourceSansPro-Regular, Source Sans Pro;}.cls-2{font-size:40px;font-family:SourceSansPro-Semibold, Source Sans Pro;font-weight:600;}.cls-3{letter-spacing:-0.01em;}.cls-4{letter-spacing:-0.02em;}.cls-5{letter-spacing:0em;}.cls-6,.cls-7{fill:none;}.cls-6{stroke:#999;}.cls-6,.cls-7,.cls-9{stroke-miterlimit:10;}.cls-7{stroke:#e50606;stroke-width:3px;}.cls-14,.cls-8{fill:#e50606;}.cls-9{fill:#fff;stroke:#000;}.cls-10{font-size:18.17px;}.cls-11{letter-spacing:-0.01em;}.cls-12{letter-spacing:-0.02em;}.cls-13{font-family:SourceSansPro-Bold, Source Sans Pro;font-weight:700;}.cls-14,.cls-15{font-weight:400;}.cls-16{font-size:16px;fill:gray;}.cls-17{letter-spacing:-0.01em;}.cls-18{letter-spacing:-0.01em;}.cls-19{letter-spacing:0em;}.cls-20{letter-spacing:-0.02em;}.cls-21{fill:url(#Gradiente_sem_nome_9);}</style><linearGradient id="Gradiente_sem_nome_9" x1="1082.98" y1="1017.42" x2="1317.48" y2="1017.42" gradientTransform="matrix(2.08, 0, 0, -7.33, -1427.06, 8475)" gradientUnits="userSpaceOnUse"><stop offset="0" stop-color="#fff" stop-opacity="0"/><stop offset="1" stop-color="gray"/></linearGradient></defs><text class="cls-1" transform="translate(118.64 315.03)">R$8.000</text><text class="cls-2" transform="translate(210.64 137.69)">P<tspan class="cls-3" x="23.28" y="0">r</tspan><tspan x="37.8" y="0">e</tspan><tspan class="cls-4" x="58.08" y="0">ç</tspan><tspan x="75.6" y="0">o do m² sobe em Ma</tspan><tspan class="cls-4" x="417.11" y="0">c</tspan><tspan class="cls-5" x="434.63" y="0">eió</tspan></text><text class="cls-1" transform="translate(121.64 404.03)">R$7.500</text><text class="cls-1" transform="translate(121.64 492.03)">R$7.500</text><text class="cls-1" transform="translate(121.64 582.03)">R$6.500</text><text class="cls-1" transform="translate(121.64 669.03)">R$6.000</text><text class="cls-1" transform="translate(121.64 758.03)">R$5.500</text><text class="cls-1" transform="translate(121.64 846.03)">R$5.000</text><text class="cls-1" transform="translate(304.64 942.03)">2019</text><text class="cls-1" transform="translate(542.64 942.03)">2020</text><text class="cls-1" transform="translate(790.64 942.03)">2021</text><text class="cls-1" transform="translate(1034.64 942.03)">2022</text><text class="cls-1" transform="translate(1281.64 942.03)">2023</text><line class="cls-6" x1="1316.5" y1="898.49" x2="1316.5" y2="273.5"/><line class="cls-6" x1="1070.5" y1="899" x2="1070.5" y2="274.01"/><line class="cls-6" x1="823.5" y1="898.49" x2="823.5" y2="273.5"/><line class="cls-6" x1="577.5" y1="899" x2="577.5" y2="274.01"/><line class="cls-6" x1="332.5" y1="898.49" x2="332.5" y2="273.5"/><line class="cls-6" x1="212.5" y1="899" x2="212.5" y2="274.01"/><line class="cls-6" x1="212.5" y1="898.5" x2="1317.5" y2="898.5"/><path class="cls-7" d="M331,900c71.5-16.5,170.5-54.5,246.5-95.5C666.35,756.57,738.77,675.13,821,617.14,903.37,559,991.62,509,1074.37,451.16L1319.5,275.5"/><circle class="cls-8" cx="332.5" cy="898.5" r="5"/><circle class="cls-8" cx="578" cy="803" r="5"/><circle class="cls-8" cx="826" cy="612" r="5"/><circle class="cls-8" cx="1071" cy="451" r="5"/><circle class="cls-8" cx="1317" cy="276" r="5"/><path class="cls-9" d="M417.89,789.16H246.8A7.82,7.82,0,0,0,239,797v52.7a7.82,7.82,0,0,0,7.8,7.8h75.73a1.17,1.17,0,0,0,.05.11l4.41,7.64,4.41,7.64a1.09,1.09,0,0,0,1.89,0l4.41-7.64,4.41-7.64a.36.36,0,0,0,0-.11h75.74a7.82,7.82,0,0,0,7.8-7.8V797A7.82,7.82,0,0,0,417.89,789.16Z"/><text class="cls-10" transform="translate(255.42 816.33)">P<tspan class="cls-11" x="10.29" y="0">r</tspan><tspan x="16.41" y="0">e</tspan><tspan class="cls-12" x="25.43" y="0">ç</tspan><tspan x="33.33" y="0">o médio por m²</tspan><tspan class="cls-13"><tspan x="0" y="25.33">2019: </tspan><tspan class="cls-14" x="47.47" y="25.33">R$4.655,00</tspan></tspan></text><path class="cls-9" d="M663.74,690.42H492.66a7.83,7.83,0,0,0-7.81,7.8v52.7a7.83,7.83,0,0,0,7.81,7.8h75.73a.36.36,0,0,0,0,.11l4.41,7.64,4.41,7.64a1.09,1.09,0,0,0,1.89,0l4.41-7.64,4.41-7.64a1.17,1.17,0,0,0,0-.11h75.73a7.82,7.82,0,0,0,7.8-7.8v-52.7A7.82,7.82,0,0,0,663.74,690.42Z"/><text class="cls-10" transform="translate(501.28 717.59)">P<tspan class="cls-11" x="10.29" y="0">r</tspan><tspan x="16.41" y="0">e</tspan><tspan class="cls-12" x="25.43" y="0">ç</tspan><tspan x="33.33" y="0">o médio por m²</tspan><tspan class="cls-13"><tspan x="0" y="25.33">2020:</tspan><tspan class="cls-15" x="43.84" y="25.33"> </tspan><tspan class="cls-14" x="47.47" y="25.33">R$5.195,00</tspan></tspan></text><path class="cls-9" d="M909.11,497.56H738a7.82,7.82,0,0,0-7.8,7.8v52.7a7.82,7.82,0,0,0,7.8,7.8h75.73a1.17,1.17,0,0,0,0,.11l4.41,7.64,4.41,7.64a1.08,1.08,0,0,0,1.88,0l4.41-7.64,4.41-7.64a1.17,1.17,0,0,0,0-.11h75.73a7.82,7.82,0,0,0,7.8-7.8v-52.7A7.82,7.82,0,0,0,909.11,497.56Z"/><text class="cls-10" transform="translate(746.65 524.73)">P<tspan class="cls-11" x="10.29" y="0">r</tspan><tspan x="16.41" y="0">e</tspan><tspan class="cls-12" x="25.43" y="0">ç</tspan><tspan x="33.33" y="0">o médio por m²</tspan><tspan class="cls-13"><tspan x="0" y="25.33">2021:</tspan><tspan class="cls-15" x="43.84" y="25.33"> </tspan><tspan class="cls-14" x="47.47" y="25.33">R$6.271,00</tspan></tspan></text><path class="cls-9" d="M1156,342.64H984.92a7.82,7.82,0,0,0-7.8,7.8v52.7a7.82,7.82,0,0,0,7.8,7.8h75.73l0,.12,4.41,7.64,4.41,7.64a1.09,1.09,0,0,0,1.88,0l4.41-7.64,4.41-7.64a.61.61,0,0,0,0-.12H1156a7.82,7.82,0,0,0,7.8-7.8v-52.7A7.82,7.82,0,0,0,1156,342.64Z"/><text class="cls-10" transform="translate(993.54 369.81)">P<tspan class="cls-11" x="10.29" y="0">r</tspan><tspan x="16.41" y="0">e</tspan><tspan class="cls-12" x="25.43" y="0">ç</tspan><tspan x="33.33" y="0">o médio por m²</tspan><tspan class="cls-13"><tspan x="0" y="25.33">2022:</tspan><tspan class="cls-15" x="43.84" y="25.33"> </tspan><tspan class="cls-14" x="47.47" y="25.33">R$7.191,00</tspan></tspan></text><path class="cls-9" d="M1401.86,178.1H1230.77a7.82,7.82,0,0,0-7.8,7.8v52.7a7.82,7.82,0,0,0,7.8,7.8h75.74a.56.56,0,0,0,0,.12l4.41,7.64,4.41,7.64a1.1,1.1,0,0,0,1.89,0l4.41-7.64,4.41-7.64.05-.12h75.73a7.82,7.82,0,0,0,7.8-7.8V185.9A7.82,7.82,0,0,0,1401.86,178.1Z"/><text class="cls-10" transform="translate(1239.39 205.27)">P<tspan class="cls-11" x="10.29" y="0">r</tspan><tspan x="16.41" y="0">e</tspan><tspan class="cls-12" x="25.43" y="0">ç</tspan><tspan x="33.33" y="0">o médio por m²</tspan><tspan class="cls-13"><tspan x="0" y="25.33">2023:</tspan><tspan class="cls-15" x="43.84" y="25.33"> </tspan><tspan class="cls-14" x="47.47" y="25.33">R$8.200,00</tspan></tspan></text><text class="cls-16" transform="translate(1218.08 1032.35)"><tspan class="cls-17">F</tspan><tspan x="7.68" y="0">on</tspan><tspan class="cls-18" x="25.1" y="0">t</tspan><tspan class="cls-19" x="30.29" y="0">e: Fipe</tspan><tspan class="cls-20" x="74.06" y="0">Z</tspan><tspan x="82.43" y="0">ap</tspan></text><rect class="cls-21" x="828.95" y="1013.46" width="488.5" height="1"/></svg>