<svg id="Camada_1" data-name="Camada 1" xmlns="http://www.w3.org/2000/svg" xmlns:xlink="http://www.w3.org/1999/xlink" viewBox="0 0 996 1080"><defs><style>.cls-1{fill:#b3b3b3;}.cls-2{fill:#ccc;}.cls-3{font-size:19px;}.cls-15,.cls-3,.cls-34,.cls-35,.cls-36{font-family:SourceSansPro-Regular, Source Sans Pro;}.cls-4{letter-spacing:-0.03em;}.cls-5{letter-spacing:-0.01em;}.cls-6{letter-spacing:-0.02em;}.cls-7{letter-spacing:-0.02em;}.cls-8{letter-spacing:-0.01em;}.cls-9{letter-spacing:0em;}.cls-10{letter-spacing:-0.02em;}.cls-11{letter-spacing:-0.01em;}.cls-12{letter-spacing:-0.02em;}.cls-13{letter-spacing:-0.02em;}.cls-14{letter-spacing:-0.01em;}.cls-15{font-size:18px;fill:#666;}.cls-16{letter-spacing:-0.01em;}.cls-17{letter-spacing:-0.01em;}.cls-18{letter-spacing:-0.02em;}.cls-19{letter-spacing:0em;}.cls-20{letter-spacing:0em;}.cls-21{letter-spacing:-0.01em;}.cls-22{font-size:40px;font-family:SourceSansPro-Semibold, Source Sans Pro;font-weight:600;}.cls-23{letter-spacing:-0.01em;}.cls-24{letter-spacing:-0.04em;}.cls-25{letter-spacing:0em;}.cls-26{letter-spacing:-0.01em;}.cls-27{letter-spacing:-0.03em;}.cls-28{letter-spacing:-0.02em;}.cls-29{fill:#e02229;}.cls-30{fill:#ffe75c;}.cls-31{fill:#edc443;}.cls-32{fill:#dd6e24;}.cls-33{fill:none;stroke:#000;stroke-miterlimit:10;}.cls-34{font-size:24px;}.cls-35{font-size:22.45px;}.cls-36{font-size:16px;fill:gray;}.cls-37{letter-spacing:-0.01em;}.cls-38{letter-spacing:-0.01em;}.cls-39{fill:url(#Gradiente_sem_nome_9);}</style><linearGradient id="Gradiente_sem_nome_9" x1="734.62" y1="1021.43" x2="969.12" y2="1021.43" gradientTransform="matrix(2.08, 0, 0, -7.33, -1150.85, 8475)" gradientUnits="userSpaceOnUse"><stop offset="0" stop-color="#fff" stop-opacity="0"/><stop offset="1" stop-color="gray"/></linearGradient></defs><rect class="cls-1" x="144.95" y="690.67" width="236.18" height="38.01"/><rect class="cls-1" x="387.85" y="690.67" width="236.18" height="38.01"/><rect class="cls-1" x="630.88" y="690.67" width="236.18" height="38.01"/><rect class="cls-2" x="144.95" y="740.9" width="236.18" height="38.01"/><rect class="cls-2" x="387.91" y="740.9" width="236.18" height="38.01"/><rect class="cls-2" x="630.88" y="740.9" width="236.18" height="38.01"/><rect class="cls-2" x="144.95" y="782.97" width="236.18" height="38.01"/><rect class="cls-2" x="387.91" y="782.97" width="236.18" height="38.01"/><rect class="cls-2" x="630.88" y="782.97" width="236.18" height="38.01"/><rect class="cls-2" x="144.95" y="825.05" width="236.18" height="38.01"/><rect class="cls-2" x="387.91" y="825.05" width="236.18" height="38.01"/><rect class="cls-2" x="630.88" y="825.05" width="236.18" height="38.01"/><rect class="cls-2" x="144.95" y="867.13" width="236.18" height="38.01"/><rect class="cls-2" x="387.91" y="867.13" width="236.18" height="38.01"/><rect class="cls-2" x="630.88" y="867.13" width="236.18" height="38.01"/><text class="cls-3" transform="translate(174.83 715.78)"><tspan class="cls-4">F</tspan><tspan x="8.74" y="0">ai</tspan><tspan class="cls-5" x="22.99" y="0">x</tspan><tspan x="31.27" y="0">a </tspan><tspan class="cls-6" x="44.65" y="0">E</tspan><tspan class="cls-7" x="54.21" y="0">t</tspan><tspan x="60.23" y="0">ária</tspan></text><text class="cls-3" transform="translate(417.73 715.78)"><tspan class="cls-6">P</tspan><tspan x="10.3" y="0">opula</tspan><tspan class="cls-8" x="55.9" y="0">ç</tspan><tspan class="cls-9" x="64.37" y="0">ão</tspan></text><text class="cls-3" transform="translate(653.91 715.78)"><tspan class="cls-10">P</tspan><tspan x="10.3" y="0">o</tspan><tspan class="cls-11" x="20.6" y="0">r</tspan><tspan class="cls-12" x="27" y="0">c</tspan><tspan x="35.26" y="0">en</tspan><tspan class="cls-13" x="55.08" y="0">t</tspan><tspan x="61.1" y="0">a</tspan><tspan class="cls-14" x="70.68" y="0">g</tspan><tspan x="79.99" y="0">em</tspan></text><text class="cls-3" transform="translate(173.47 764)">0 a 4 anos</text><text class="cls-3" transform="translate(416.37 764)">647</text><text class="cls-3" transform="translate(652.55 764)">6.4%</text><text class="cls-3" transform="translate(173.47 807.44)">0 a 14 anos</text><text class="cls-3" transform="translate(416.37 807.44)">2314</text><text class="cls-3" transform="translate(652.55 807.44)">22.9%</text><text class="cls-3" transform="translate(173.47 849.51)">15 a 64 anos</text><text class="cls-3" transform="translate(416.37 849.51)">7001</text><text class="cls-3" transform="translate(652.55 849.51)">69.3%</text><text class="cls-3" transform="translate(173.47 890.23)">65 anos e +</text><text class="cls-3" transform="translate(416.37 890.23)">788</text><text class="cls-15" transform="translate(174.37 943.23)">* Núme<tspan class="cls-16" x="56.41" y="0">r</tspan><tspan x="62.48" y="0">o ap</tspan><tspan class="cls-17" x="94.9" y="0">r</tspan><tspan class="cls-18" x="100.96" y="0">o</tspan><tspan class="cls-19" x="110.41" y="0">ximados d</tspan><tspan class="cls-20" x="187.74" y="0">e</tspan><tspan class="cls-19" x="196.76" y="0">vido </tspan><tspan class="cls-16" x="232.93" y="0">c</tspan><tspan x="240.96" y="0">álculos de po</tspan><tspan class="cls-17" x="340.37" y="0">r</tspan><tspan class="cls-7" x="346.44" y="0">c</tspan><tspan x="354.27" y="0">en</tspan><tspan class="cls-7" x="373.04" y="0">t</tspan><tspan class="cls-19" x="378.75" y="0">a</tspan><tspan class="cls-21" x="387.82" y="0">g</tspan><tspan x="396.64" y="0">em.</tspan></text><text class="cls-3" transform="translate(652.55 890.23)">7.8%</text><text class="cls-22" transform="translate(302.24 148)">Bebedou<tspan class="cls-23" x="153.72" y="0">r</tspan><tspan x="168.24" y="0">o: </tspan><tspan class="cls-24" x="209.2" y="0">F</tspan><tspan class="cls-25" x="228.16" y="0">ai</tspan><tspan class="cls-26" x="259.28" y="0">x</tspan><tspan x="278.12" y="0">a </tspan><tspan class="cls-27" x="306.75" y="0">E</tspan><tspan class="cls-28" x="327.24" y="0">t</tspan><tspan x="340.84" y="0">ária</tspan></text><path class="cls-29" d="M682.18,484.29c-.18,1-.36,2.1-.56,3.14l-.24,1.38c-.33,1.73-.7,3.46-1.08,5.18-.25,1.15-.53,2.31-.8,3.45a5.59,5.59,0,0,1-.16.65c-.26,1-.52,2.06-.79,3.09-.15.6-.31,1.21-.49,1.81q-1.34,4.85-3,9.58c-.44,1.33-.9,2.64-1.38,3.95-.26.71-.52,1.41-.79,2.11-.17.47-.35.93-.54,1.39s-.3.79-.46,1.18-.4,1-.6,1.48c-.3.76-.62,1.52-1,2.28q-1.21,2.88-2.52,5.68c-.3.65-.61,1.3-.94,2s-.52,1.09-.79,1.63c-.12.26-.24.52-.38.76-.57,1.14-1.15,2.28-1.75,3.41l-1,1.9c-1,1.9-2.09,3.79-3.2,5.65-.35.61-.72,1.22-1.1,1.83s-.73,1.23-1.13,1.83-.76,1.22-1.15,1.82c-1.59,2.5-3.26,5-5,7.38l-1,1.43c-.48.65-.95,1.29-1.44,1.93s-.77,1-1.18,1.56c-.57.76-1.17,1.52-1.77,2.26-.73.94-1.48,1.86-2.22,2.77-.91,1.1-1.84,2.2-2.77,3.27-.76.89-1.52,1.74-2.3,2.6-.19.2-.36.4-.55.61-.63.7-1.26,1.4-1.92,2.07-.32.36-.66.71-1,1.06-.6.64-1.21,1.28-1.83,1.9l-2.68,2.68q-4.59,4.47-9.51,8.63c-.67.57-1.35,1.14-2,1.68-1,.82-2,1.6-3,2.39q-5.91,4.62-12.19,8.77c-.6.39-1.2.79-1.81,1.17-1.21.78-2.43,1.54-3.65,2.28-.61.38-1.22.74-1.84,1.11l-2.07,1.21-1.67.94c-.62.35-1.26.7-1.9,1s-1,.57-1.57.84c-1.64.88-3.31,1.73-5,2.54-.74.37-1.47.72-2.2,1.06s-1.41.68-2.12,1c-.92.43-1.85.84-2.78,1.25l-1.67.72c-1.18.5-2.36,1-3.54,1.45-.93.38-1.86.75-2.8,1.1a5.62,5.62,0,0,1-.53.19c-.9.35-1.81.68-2.71,1-1.73.63-3.45,1.21-5.19,1.78l-2.92.91c-1.34.41-2.7.8-4.07,1.18s-2.55.7-3.83,1c-1,.27-2,.52-3.07.75-.72.17-1.45.35-2.17.5l-2.94.64-3.52.68c-1.32.24-2.65.47-4,.67s-2.36.37-3.54.53c-.43.07-.85.13-1.27.17-1.06.16-2.13.28-3.2.4h0c-1.29.15-2.6.29-3.9.41L522,633l-3.3.25-1.24.09c-1,.06-2,.12-3,.16-1.64.08-3.3.13-5,.16-1.15,0-2.31,0-3.47,0A178.49,178.49,0,0,1,327.54,455.21c0-1.19,0-2.39,0-3.58,0-1,0-1.92.09-2.85s.06-1.93.12-2.88c0-.72.07-1.44.12-2.16s.09-1.51.15-2.27.13-1.65.22-2.48.16-1.85.27-2.75c.05-.6.12-1.2.19-1.8.16-1.41.34-2.81.54-4.19.08-.6.16-1.2.26-1.78.11-.73.22-1.45.34-2.17.13-.9.3-1.79.45-2.69l.12-.66c.17-1,.36-1.93.55-2.89s.33-1.61.51-2.41c.28-1.34.58-2.66.89-4,.21-.83.4-1.65.61-2.47q1.2-4.74,2.65-9.36c.31-1,.62-2,1-3s.53-1.62.83-2.42.64-1.84,1-2.75q.29-.79.6-1.59c.61-1.63,1.24-3.26,1.91-4.86.31-.78.64-1.54,1-2.3.57-1.33,1.16-2.64,1.75-3.95.34-.74.68-1.47,1-2.21q2.07-4.4,4.39-8.66c.9-1.64,1.82-3.28,2.77-4.9.41-.69.82-1.38,1.24-2.07,1.15-1.93,2.35-3.85,3.6-5.72.55-.85,1.12-1.7,1.69-2.54s1.14-1.68,1.74-2.51c1.17-1.65,2.36-3.3,3.6-4.91l.58-.78c1-1.35,2.09-2.7,3.18-4,.63-.79,1.29-1.58,1.94-2.35.08-.11.17-.2.25-.31q1.84-2.16,3.74-4.28c.17-.19.34-.37.5-.56,1.21-1.31,2.42-2.6,3.65-3.89,1.4-1.45,2.84-2.89,4.29-4.3l2.2-2.09c.65-.62,1.32-1.21,2-1.82l.27-.25c1.49-1.35,3-2.67,4.56-4h0c1.54-1.3,3.12-2.59,4.71-3.86.63-.5,1.29-1,1.94-1.5l.53-.41c1.6-1.21,3.21-2.39,4.84-3.56l2.5-1.73c1.47-1,2.93-2,4.43-2.94,1.2-.77,2.41-1.53,3.65-2.28q2.41-1.46,4.9-2.86c.88-.5,1.77-1,2.67-1.48s1.81-1,2.7-1.44,1.82-.94,2.74-1.4l79.35,159.45.19.38Z"/><path class="cls-30" d="M684.52,455.21a181,181,0,0,1-2.34,29.08L506,455.21v-.85l66.17-165A178.51,178.51,0,0,1,684.52,455.21Z"/><path class="cls-31" d="M572.2,289.4,506,454.36V276.72A177.58,177.58,0,0,1,572.2,289.4Z"/><path class="cls-32" d="M506,276.72V454.36l-.19.47L426.49,295.38A177.77,177.77,0,0,1,506,276.72Z"/><polyline class="cls-33" points="642.75 396.5 669.9 349.5 852.75 349.5"/><polyline class="cls-33" points="538.75 312.5 557.9 265.5 735.25 265.5"/><polyline class="cls-33" points="370.75 396.5 343.6 349.5 159.25 349.5"/><polyline class="cls-33" points="461.75 313.5 435.6 265.5 238.25 265.5"/><text class="cls-34" transform="translate(595.37 253.83)">0 a 4 anos</text><text class="cls-34" transform="translate(707.37 332.83)">0 a 14 anos</text><text class="cls-35" transform="translate(291.37 252.54) scale(1.07 1)">65 anos e +</text><text class="cls-35" transform="translate(191.37 333.44) scale(1.07 1)">15 a 64 anos</text><text class="cls-36" transform="translate(746.36 1002.9)"><tspan class="cls-37">F</tspan><tspan x="7.68" y="0">on</tspan><tspan class="cls-38" x="25.1" y="0">t</tspan><tspan x="30.29" y="0">e: Censo 2010</tspan></text><rect class="cls-39" x="379.48" y="984.01" width="488.5" height="1"/></svg>