<svg id="Camada_1" data-name="Camada 1" xmlns="http://www.w3.org/2000/svg" xmlns:xlink="http://www.w3.org/1999/xlink" viewBox="0 0 1374 758"><defs><style>.cls-1,.cls-3,.cls-4,.cls-5,.cls-6{font-size:21px;}.cls-1,.cls-18,.cls-3,.cls-4,.cls-5,.cls-6{font-family:SourceSansPro-Regular, Source Sans Pro;}.cls-2{font-size:25px;}.cls-2,.cls-9{fill:#e50606;}.cls-11,.cls-13,.cls-2{font-family:SourceSansPro-Semibold, Source Sans Pro;font-weight:600;}.cls-3,.cls-4,.cls-5,.cls-6{font-weight:400;}.cls-4{letter-spacing:-0.02em;}.cls-5{letter-spacing:-0.01em;}.cls-6{letter-spacing:0em;}.cls-7{letter-spacing:-0.01em;}.cls-17,.cls-8{fill:none;stroke-miterlimit:10;}.cls-8{stroke:#000;}.cls-10{fill:#26226b;}.cls-11{font-size:23px;}.cls-11,.cls-12{fill:#fff;}.cls-13{font-size:40px;}.cls-14{letter-spacing:-0.02em;}.cls-15{letter-spacing:-0.01em;}.cls-16{fill:#b2e296;}.cls-17{stroke:#e50606;}.cls-18{font-size:16px;fill:gray;}.cls-19{letter-spacing:-0.01em;}.cls-20{letter-spacing:-0.01em;}.cls-21{fill:url(#Gradiente_sem_nome_9);}</style><linearGradient id="Gradiente_sem_nome_9" x1="639.16" y1="936.12" x2="873.66" y2="936.12" gradientTransform="translate(-1122.98 -6188.12) scale(2.08 7.33)" gradientUnits="userSpaceOnUse"><stop offset="0" stop-color="#fff" stop-opacity="0"/><stop offset="1" stop-color="gray"/></linearGradient></defs><text class="cls-1" transform="translate(207.86 609.88)">0</text><text class="cls-1" transform="translate(373.9 609.88)">2.000</text><text class="cls-1" transform="translate(102.9 350.88)">Homens</text><text class="cls-2" transform="translate(1058.62 410.46)">10.103<tspan class="cls-3" x="71" y="0" xml:space="preserve"> habi</tspan><tspan class="cls-4" x="113.98" y="0">t</tspan><tspan class="cls-3" x="120.64" y="0">an</tspan><tspan class="cls-5" x="142.71" y="0">t</tspan><tspan class="cls-6" x="149.52" y="0">es</tspan></text><text class="cls-1" transform="translate(104.9 463.88)">Mulhe<tspan class="cls-7" x="53.88" y="0">r</tspan><tspan x="60.96" y="0">es</tspan></text><text class="cls-1" transform="translate(577.74 609.88)">4.000</text><text class="cls-1" transform="translate(766.77 609.88)">6.000</text><line class="cls-8" x1="215.46" y1="219.75" x2="215.46" y2="571.85"/><line class="cls-8" x1="404.48" y1="220.68" x2="404.48" y2="572.77"/><line class="cls-8" x1="600.92" y1="220.68" x2="600.92" y2="572.77"/><line class="cls-8" x1="793.64" y1="220.68" x2="793.64" y2="572.77"/><rect class="cls-9" x="215.46" y="412.1" width="524.44" height="88.9"/><rect class="cls-10" x="215.46" y="299.17" width="441.05" height="88.9"/><text class="cls-11" transform="translate(522.1 347.05)">45.77%</text><text class="cls-11" transform="translate(616.05 457.36)">54.23%</text><path class="cls-12" d="M708.75,457.36a11.84,11.84,0,1,1,11.83-11.84A11.85,11.85,0,0,1,708.75,457.36Zm0-18.9a7.06,7.06,0,1,0,7.06,7.06A7.07,7.07,0,0,0,708.75,438.46Z"/><rect class="cls-12" x="706.36" y="455.73" width="4.96" height="17.37"/><rect class="cls-12" x="706.17" y="458.41" width="4.96" height="15.27" transform="translate(242.61 1174.7) rotate(-90)"/><path class="cls-12" d="M614,351.35a11.8,11.8,0,1,1,11.8-11.8A11.81,11.81,0,0,1,614,351.35Zm0-18.84a7,7,0,1,0,7,7A7.05,7.05,0,0,0,614,332.51Z"/><rect class="cls-12" x="626.15" y="314.62" width="4.95" height="12.37" transform="translate(949.43 -307.82) rotate(90)"/><rect class="cls-12" x="630.05" y="318.33" width="4.95" height="12.37" transform="translate(1265.05 649.04) rotate(180)"/><rect class="cls-12" x="623.01" y="320.05" width="4.95" height="15.22" transform="translate(414.89 -346.32) rotate(45)"/><text class="cls-13" transform="translate(213.38 123.16)"><tspan class="cls-14">P</tspan><tspan x="22.4" y="0">opula</tspan><tspan class="cls-15" x="120.64" y="0">ç</tspan><tspan x="138.72" y="0">ão de Bebedou</tspan><tspan class="cls-15" x="393.88" y="0">r</tspan><tspan x="408.39" y="0">o</tspan></text><polygon class="cls-16" points="1055.4 559.3 1076.32 559.3 1076.32 529.36 1082.42 529.36 1087.35 522.14 1094.63 522.14 1094.63 515.75 1103 508.44 1103 499.55 1099.74 492.14 1091.34 492.14 1091.26 486.93 1088.53 486.93 1088.53 473.89 1100.39 467.37 1100.39 462.15 1097.13 462.15 1091.91 464.11 1089.96 459.54 1070.4 460.85 1057.36 464.76 1034.54 443.89 1034.54 437.35 1027.36 432.15 1027.36 425.14 1020.19 421.72 1011.71 416.51 1011.71 412.51 1009.18 410.02 1003.08 410.02 991.5 426.29 991.5 442.82 974.55 441.94 958.9 423.68 952.38 423.68 952.38 420.29 946.51 419.77 932.82 407.38 932.82 402.81 938.76 402.81 941.94 397.6 941.94 389.77 932.82 383.9 932.82 365.99 936.73 365.99 936.73 350.65 925.64 335 915.91 335 914.56 343.48 900.87 345.43 900.87 365.83 903.47 365.65 904.78 375.43 898.26 381.95 888.48 378.04 880 381.95 880 395.88 905.76 420.74 939.01 442.91 952.05 449.43 975.52 474.86 996.39 474.86 998.35 479.43 1002.26 478.78 1005.74 486.19 1011.69 486.19 1011.69 491.17 1040.73 519.86 1040.73 538.11 1055.08 553.11 1055.4 559.3"/><circle class="cls-17" cx="1011" cy="455" r="14.5"/><circle class="cls-17" cx="1011" cy="455" r="10.5"/><circle class="cls-9" cx="1011" cy="455" r="4.5"/><polyline class="cls-17" points="1011 455 1051 418 1235 418"/><text class="cls-18" transform="translate(208.49 695.17)"><tspan class="cls-19">F</tspan><tspan x="7.68" y="0">on</tspan><tspan class="cls-20" x="25.1" y="0">t</tspan><tspan x="30.29" y="0">e: Censo 2010</tspan></text><rect class="cls-21" x="208.49" y="676.28" width="488.5" height="1" transform="translate(905.48 1353.55) rotate(-180)"/></svg>