<svg id="Camada_1" data-name="Camada 1" xmlns="http://www.w3.org/2000/svg" viewBox="0 0 888 575"><defs><style>.cls-1{font-size:22px;}.cls-1,.cls-22{font-family:SourceSansPro-Semibold, Source Sans Pro;font-weight:600;}.cls-2{letter-spacing:-0.01em;}.cls-3{letter-spacing:0em;}.cls-4{letter-spacing:-0.03em;}.cls-5{letter-spacing:0em;}.cls-6{letter-spacing:0em;}.cls-7{letter-spacing:0em;}.cls-25,.cls-26,.cls-8,.cls-9{stroke:#000;stroke-miterlimit:10;}.cls-8,.cls-9{stroke-width:0.75px;}.cls-9{fill:#fff;}.cls-10{letter-spacing:-0.02em;}.cls-11{letter-spacing:-0.01em;}.cls-12{letter-spacing:-0.02em;}.cls-13{letter-spacing:-0.02em;}.cls-14{letter-spacing:0em;}.cls-15{letter-spacing:-0.01em;}.cls-16{letter-spacing:-0.03em;}.cls-17{letter-spacing:-0.01em;}.cls-18{letter-spacing:-0.02em;}.cls-19{letter-spacing:-0.02em;}.cls-20{letter-spacing:-0.03em;}.cls-21{letter-spacing:-0.02em;}.cls-22{font-size:40px;}.cls-23{letter-spacing:-0.02em;}.cls-24{letter-spacing:-0.01em;}.cls-26{fill:none;stroke-width:2px;}</style></defs><text class="cls-1" transform="translate(151.03 196.55)">Time Cai<tspan class="cls-2" x="81.66" y="0">ç</tspan><tspan class="cls-3" x="91.61" y="0">a</tspan><tspan class="cls-4" x="102.96" y="0">r</tspan><tspan class="cls-5" x="110.59" y="0">a</tspan></text><text class="cls-1" transform="translate(152.03 269.55)">Time Ca<tspan class="cls-2" x="75.9" y="0">r</tspan><tspan class="cls-6" x="83.88" y="0">d</tspan><tspan class="cls-7" x="96.29" y="0">o</tspan><tspan x="108.28" y="0">so</tspan></text><path class="cls-8" d="M81,263.36v-2.74a1.76,1.76,0,0,0,.07-.33c.09-.66.14-1.33.27-2a19.6,19.6,0,0,1,16.18-15.58l1.61-.22h2.74a1.82,1.82,0,0,0,.25.07c.66.08,1.34.12,2,.25a19.31,19.31,0,0,1,12.69,8.5A19.49,19.49,0,0,1,112.94,277c-5.53,4.49-11.83,5.75-18.56,3.49-7.26-2.43-11.58-7.64-13.09-15.15C81.16,264.67,81.1,264,81,263.36Zm25.75-18.43-.21.08-5.09,2a.37.37,0,0,0-.26.42c0,2.31,0,4.62,0,6.93a.69.69,0,0,0,.22.47q3,2.41,6,4.78a.6.6,0,0,0,.47.08q3.56-1.17,7.1-2.37a.58.58,0,0,0,.32-.35q.47-1.91.9-3.81a.79.79,0,0,0-.09-.52A18.15,18.15,0,0,0,107,245Zm-7,6c0-1.14,0-2.29,0-3.43a.41.41,0,0,0-.31-.47c-1.69-.66-3.37-1.34-5-2a.72.72,0,0,0-.5,0,18,18,0,0,0-9,7.59.83.83,0,0,0-.09.56q.42,1.9.9,3.81a.54.54,0,0,0,.31.35q3.54,1.2,7.1,2.37a.59.59,0,0,0,.47-.08q3-2.37,6-4.78a.69.69,0,0,0,.22-.47C99.81,253.23,99.8,252.07,99.8,250.92ZM82.24,262.66l.07,0,.06.72c0,.25,0,.51.07.76a17.83,17.83,0,0,0,3.39,8.56.55.55,0,0,0,.32.22c1.58.26,3.15.51,4.73.75a.53.53,0,0,0,.41-.17c1.15-1.51,2.29-3,3.42-4.57a.52.52,0,0,0,.09-.4q-.89-3.6-1.8-7.19a.53.53,0,0,0-.3-.32l-7-2.36a.35.35,0,0,0-.45.13c-.89,1.09-1.8,2.17-2.69,3.26A2.78,2.78,0,0,0,82.24,262.66Zm36.52,0a3.19,3.19,0,0,0-.32-.64c-.87-1.07-1.77-2.13-2.64-3.2a.4.4,0,0,0-.51-.15l-7,2.33a.63.63,0,0,0-.36.37q-.9,3.55-1.77,7.11a.62.62,0,0,0,.09.48q1.7,2.26,3.42,4.52a.56.56,0,0,0,.43.18c1.56-.23,3.11-.47,4.66-.73a.61.61,0,0,0,.36-.23A18.89,18.89,0,0,0,118.76,262.7Zm-18.26,6.94H96.32a.58.58,0,0,0-.54.26c-1.09,1.47-2.18,2.93-3.29,4.38a.4.4,0,0,0,0,.56c.92,1.43,1.84,2.86,2.74,4.3a1,1,0,0,0,.61.45,18.28,18.28,0,0,0,10-.19.82.82,0,0,0,.41-.35c.81-1.39,1.59-2.79,2.4-4.18a.44.44,0,0,0,0-.57q-1.68-2.19-3.33-4.39a.6.6,0,0,0-.54-.27Z"/><path class="cls-9" d="M106.75,244.93l.26.08a18.15,18.15,0,0,1,9.08,7.65.79.79,0,0,1,.09.52q-.44,1.9-.9,3.81a.58.58,0,0,1-.32.35q-3.54,1.2-7.1,2.37a.6.6,0,0,1-.47-.08q-3-2.37-6-4.78a.69.69,0,0,1-.22-.47c0-2.31,0-4.62,0-6.93a.37.37,0,0,1,.26-.42l5.09-2Z"/><path class="cls-9" d="M99.8,250.92c0,1.15,0,2.31,0,3.46a.69.69,0,0,1-.22.47q-3,2.41-6,4.78a.59.59,0,0,1-.47.08q-3.55-1.17-7.1-2.37a.54.54,0,0,1-.31-.35q-.48-1.91-.9-3.81a.83.83,0,0,1,.09-.56A18,18,0,0,1,94,245a.72.72,0,0,1,.5,0c1.68.65,3.36,1.33,5,2a.41.41,0,0,1,.31.47C99.8,248.63,99.8,249.78,99.8,250.92Z"/><path class="cls-9" d="M82.24,262.66a2.78,2.78,0,0,1,.29-.57c.89-1.09,1.8-2.17,2.69-3.26a.35.35,0,0,1,.45-.13l7,2.36a.53.53,0,0,1,.3.32q.91,3.58,1.8,7.19a.52.52,0,0,1-.09.4c-1.13,1.53-2.27,3.06-3.42,4.57a.53.53,0,0,1-.41.17c-1.58-.24-3.15-.49-4.73-.75a.55.55,0,0,1-.32-.22,17.83,17.83,0,0,1-3.39-8.56c0-.25,0-.51-.07-.76l-.06-.72Z"/><path class="cls-9" d="M118.76,262.7a18.89,18.89,0,0,1-3.59,10,.61.61,0,0,1-.36.23c-1.55.26-3.1.5-4.66.73a.56.56,0,0,1-.43-.18Q108,271.27,106.3,269a.62.62,0,0,1-.09-.48q.87-3.56,1.77-7.11a.63.63,0,0,1,.36-.37l7-2.33a.4.4,0,0,1,.51.15c.87,1.07,1.77,2.13,2.64,3.2A3.19,3.19,0,0,1,118.76,262.7Z"/><path class="cls-9" d="M100.5,269.64h4.19a.6.6,0,0,1,.54.27q1.65,2.2,3.33,4.39a.44.44,0,0,1,0,.57c-.81,1.39-1.59,2.79-2.4,4.18a.82.82,0,0,1-.41.35,18.28,18.28,0,0,1-10,.19,1,1,0,0,1-.61-.45c-.9-1.44-1.82-2.87-2.74-4.3a.4.4,0,0,1,0-.56c1.11-1.45,2.2-2.91,3.29-4.38a.58.58,0,0,1,.54-.26Z"/><text class="cls-1" transform="translate(152.03 339.43)">Time San<tspan class="cls-10" x="87.54" y="0">t</tspan><tspan x="95.02" y="0">a Cruz </tspan></text><text class="cls-1" transform="translate(152.03 409.06)">Time Cru<tspan class="cls-11" x="84.98" y="0">z</tspan><tspan class="cls-6" x="94.51" y="0">ei</tspan><tspan class="cls-2" x="111.43" y="0">r</tspan><tspan x="119.41" y="0">o</tspan></text><text class="cls-1" transform="translate(152.03 479.06)">Time San<tspan class="cls-12" x="87.54" y="0">t</tspan><tspan x="95.13" y="0">o An</tspan><tspan class="cls-13" x="136.2" y="0">t</tspan><tspan class="cls-14" x="143.79" y="0">ônio</tspan></text><text class="cls-1" transform="translate(509.03 196.55)">Time Bebedou<tspan class="cls-15" x="136.42" y="0">r</tspan><tspan class="cls-5" x="144.41" y="0">ense</tspan></text><text class="cls-1" transform="translate(510.03 269.55)">Time <tspan class="cls-16" x="51.88" y="0">C</tspan><tspan x="63.98" y="0">SA</tspan></text><text class="cls-1" transform="translate(510.03 339.43)">Time Se<tspan class="cls-17" x="75.02" y="0">c</tspan><tspan class="cls-3" x="84.96" y="0">a </tspan><tspan class="cls-18" x="100.71" y="0">P</tspan><tspan x="113.03" y="0">o</tspan><tspan class="cls-19" x="125.11" y="0">ç</tspan><tspan x="134.75" y="0">o </tspan></text><text class="cls-1" transform="translate(510.03 409.06)">Time <tspan class="cls-20" x="51.88" y="0">V</tspan><tspan x="63.03" y="0">as</tspan><tspan class="cls-21" x="83.86" y="0">c</tspan><tspan x="93.5" y="0">o</tspan></text><text class="cls-1" transform="translate(510.03 479.06)">Time Belo Hori<tspan class="cls-2" x="139.24" y="0">z</tspan><tspan x="148.76" y="0">on</tspan><tspan class="cls-12" x="173.16" y="0">t</tspan><tspan class="cls-5" x="180.75" y="0">e</tspan></text><text class="cls-22" transform="translate(78.49 96.92)">Times de fu<tspan class="cls-23" x="197.32" y="0">t</tspan><tspan x="211.12" y="0">ebol de pelada de Bebedou</tspan><tspan class="cls-24" x="675.63" y="0">r</tspan><tspan x="690.15" y="0">o</tspan></text><polygon class="cls-25" points="142.5 262.03 142.5 265.13 139.81 263.58 137.12 262.03 139.81 260.48 142.5 258.92 142.5 262.03"/><line class="cls-26" x1="143.5" y1="248.53" x2="143.5" y2="275.53"/><path class="cls-8" d="M79,333.21v-2.74a1.94,1.94,0,0,0,.07-.33c.09-.66.14-1.34.27-2a19.57,19.57,0,0,1,16.18-15.58c.53-.08,4.51-.17,4.6-.16.66.09,1.34.13,2,.26a19.26,19.26,0,0,1,12.69,8.49,19.47,19.47,0,0,1-22.42,29.15c-7.26-2.44-11.58-7.65-13.09-15.16C79.16,334.51,79.1,333.86,79,333.21Zm25.75-18.44-.21.08c-1.7.68-3.39,1.36-5.09,2a.38.38,0,0,0-.26.43c0,2.31,0,4.62,0,6.93a.69.69,0,0,0,.22.47q3,2.4,6,4.78a.6.6,0,0,0,.47.07q3.56-1.16,7.1-2.36a.65.65,0,0,0,.32-.35q.47-1.9.9-3.81a.8.8,0,0,0-.09-.53,18.13,18.13,0,0,0-9.08-7.64Zm-7,6c0-1.14,0-2.28,0-3.42a.43.43,0,0,0-.31-.48c-1.69-.65-3.37-1.33-5-2a.78.78,0,0,0-.5,0,18.14,18.14,0,0,0-9,7.59.84.84,0,0,0-.09.56q.42,1.92.9,3.81a.58.58,0,0,0,.31.36q3.54,1.2,7.1,2.36a.59.59,0,0,0,.47-.07q3-2.39,6-4.78a.69.69,0,0,0,.22-.47C97.81,323.07,97.8,321.92,97.8,320.76ZM80.24,332.51l.07,0,.06.72c0,.25,0,.5.07.75a17.83,17.83,0,0,0,3.39,8.57.55.55,0,0,0,.32.22c1.58.26,3.15.51,4.73.74a.52.52,0,0,0,.41-.16q1.72-2.28,3.42-4.57a.54.54,0,0,0,.09-.41c-.59-2.4-1.19-4.79-1.8-7.19a.56.56,0,0,0-.3-.32l-7-2.35a.35.35,0,0,0-.45.13c-.89,1.09-1.8,2.16-2.69,3.25A3.14,3.14,0,0,0,80.24,332.51Zm36.52,0a3.48,3.48,0,0,0-.32-.64c-.87-1.07-1.77-2.12-2.64-3.19a.4.4,0,0,0-.51-.15c-2.32.78-4.64,1.54-7,2.33a.63.63,0,0,0-.36.37c-.6,2.36-1.19,4.74-1.77,7.11a.6.6,0,0,0,.09.47c1.13,1.52,2.27,3,3.42,4.52a.57.57,0,0,0,.43.19c1.56-.23,3.11-.48,4.66-.74a.65.65,0,0,0,.36-.22A18.92,18.92,0,0,0,116.76,332.54ZM98.5,339.49H94.32a.6.6,0,0,0-.54.26c-1.09,1.47-2.18,2.93-3.29,4.38a.42.42,0,0,0,0,.57c.92,1.42,1.84,2.85,2.74,4.29a.93.93,0,0,0,.61.45,18.19,18.19,0,0,0,10-.19.75.75,0,0,0,.41-.34c.81-1.39,1.59-2.8,2.4-4.19a.43.43,0,0,0,0-.56q-1.68-2.19-3.33-4.4a.62.62,0,0,0-.54-.27Z"/><path class="cls-9" d="M104.75,314.77l.26.09a18.13,18.13,0,0,1,9.08,7.64.8.8,0,0,1,.09.53q-.44,1.91-.9,3.81a.65.65,0,0,1-.32.35q-3.54,1.2-7.1,2.36a.6.6,0,0,1-.47-.07q-3-2.39-6-4.78a.69.69,0,0,1-.22-.47c0-2.31,0-4.62,0-6.93a.38.38,0,0,1,.26-.43c1.7-.66,3.39-1.34,5.09-2Z"/><path class="cls-9" d="M97.8,320.76c0,1.16,0,2.31,0,3.47a.69.69,0,0,1-.22.47q-3,2.4-6,4.78a.59.59,0,0,1-.47.07q-3.55-1.16-7.1-2.36a.58.58,0,0,1-.31-.36q-.48-1.89-.9-3.81a.84.84,0,0,1,.09-.56,18.14,18.14,0,0,1,9-7.59.78.78,0,0,1,.5,0c1.68.65,3.36,1.33,5,2a.43.43,0,0,1,.31.48C97.8,318.48,97.8,319.62,97.8,320.76Z"/><path class="cls-9" d="M80.24,332.51a3.14,3.14,0,0,1,.29-.58c.89-1.09,1.8-2.16,2.69-3.25a.35.35,0,0,1,.45-.13l7,2.35a.56.56,0,0,1,.3.32c.61,2.4,1.21,4.79,1.8,7.19a.54.54,0,0,1-.09.41q-1.69,2.3-3.42,4.57a.52.52,0,0,1-.41.16c-1.58-.23-3.15-.48-4.73-.74a.55.55,0,0,1-.32-.22A17.83,17.83,0,0,1,80.44,334c0-.25,0-.5-.07-.75l-.06-.72Z"/><path class="cls-9" d="M116.76,332.54a18.92,18.92,0,0,1-3.59,10,.65.65,0,0,1-.36.22c-1.55.26-3.1.51-4.66.74a.57.57,0,0,1-.43-.19c-1.15-1.5-2.29-3-3.42-4.52a.6.6,0,0,1-.09-.47c.58-2.37,1.17-4.75,1.77-7.11a.63.63,0,0,1,.36-.37c2.31-.79,4.63-1.55,7-2.33a.4.4,0,0,1,.51.15c.87,1.07,1.77,2.12,2.64,3.19A3.48,3.48,0,0,1,116.76,332.54Z"/><path class="cls-9" d="M98.5,339.49h4.19a.62.62,0,0,1,.54.27q1.65,2.21,3.33,4.4a.43.43,0,0,1,0,.56c-.81,1.39-1.59,2.8-2.4,4.19a.75.75,0,0,1-.41.34,18.19,18.19,0,0,1-10,.19.93.93,0,0,1-.61-.45c-.9-1.44-1.82-2.87-2.74-4.29a.42.42,0,0,1,0-.57c1.11-1.45,2.2-2.91,3.29-4.38a.6.6,0,0,1,.54-.26Z"/><polygon class="cls-25" points="140.5 331.91 140.5 335.01 137.81 333.46 135.12 331.91 137.81 330.36 140.5 328.8 140.5 331.91"/><line class="cls-26" x1="141.5" y1="318.41" x2="141.5" y2="345.41"/><path class="cls-8" d="M79,402.83v-2.74a1.76,1.76,0,0,0,.07-.33c.09-.66.14-1.33.27-2a19.6,19.6,0,0,1,16.18-15.58c.53-.08,4.51-.16,4.6-.15.66.08,1.34.12,2,.25a19.31,19.31,0,0,1,12.69,8.5,19.5,19.5,0,0,1-3.86,25.66c-5.53,4.48-11.83,5.74-18.56,3.48-7.26-2.43-11.58-7.64-13.09-15.15C79.16,404.14,79.1,403.48,79,402.83Zm25.75-18.43-.21.08-5.09,2a.37.37,0,0,0-.26.42c0,2.31,0,4.62,0,6.93a.69.69,0,0,0,.22.47q3,2.42,6,4.78a.6.6,0,0,0,.47.08q3.56-1.17,7.1-2.37a.58.58,0,0,0,.32-.35q.47-1.9.9-3.81a.79.79,0,0,0-.09-.52,18.15,18.15,0,0,0-9.08-7.65Zm-7,6c0-1.14,0-2.29,0-3.43a.41.41,0,0,0-.31-.47c-1.69-.66-3.37-1.34-5-2a.72.72,0,0,0-.5,0,18,18,0,0,0-9,7.59.83.83,0,0,0-.09.56q.42,1.91.9,3.81a.54.54,0,0,0,.31.35q3.54,1.2,7.1,2.37a.59.59,0,0,0,.47-.08q3-2.37,6-4.78a.69.69,0,0,0,.22-.47C97.81,392.7,97.8,391.54,97.8,390.39ZM80.24,402.13l.07,0,.06.72c0,.25,0,.51.07.76a17.83,17.83,0,0,0,3.39,8.56.55.55,0,0,0,.32.22c1.58.26,3.15.51,4.73.75a.53.53,0,0,0,.41-.17c1.15-1.51,2.29-3,3.42-4.57a.52.52,0,0,0,.09-.4q-.89-3.6-1.8-7.19a.53.53,0,0,0-.3-.32l-7-2.36a.35.35,0,0,0-.45.13c-.89,1.09-1.8,2.17-2.69,3.26A2.78,2.78,0,0,0,80.24,402.13Zm36.52,0a3.19,3.19,0,0,0-.32-.64c-.87-1.07-1.77-2.13-2.64-3.2a.4.4,0,0,0-.51-.15l-7,2.33a.63.63,0,0,0-.36.37q-.9,3.56-1.77,7.11a.62.62,0,0,0,.09.48q1.7,2.26,3.42,4.52a.56.56,0,0,0,.43.18c1.56-.23,3.11-.47,4.66-.73a.61.61,0,0,0,.36-.23A18.89,18.89,0,0,0,116.76,402.17ZM98.5,409.11H94.32a.58.58,0,0,0-.54.26c-1.09,1.47-2.18,2.93-3.29,4.38a.4.4,0,0,0,0,.56c.92,1.43,1.84,2.86,2.74,4.3a1,1,0,0,0,.61.45,18.28,18.28,0,0,0,10-.19.82.82,0,0,0,.41-.35c.81-1.39,1.59-2.79,2.4-4.18a.44.44,0,0,0,0-.57q-1.68-2.19-3.33-4.39a.6.6,0,0,0-.54-.27Z"/><path class="cls-9" d="M104.75,384.4l.26.08a18.15,18.15,0,0,1,9.08,7.65.79.79,0,0,1,.09.52q-.44,1.91-.9,3.81a.58.58,0,0,1-.32.35q-3.54,1.2-7.1,2.37a.6.6,0,0,1-.47-.08q-3-2.37-6-4.78a.69.69,0,0,1-.22-.47c0-2.31,0-4.62,0-6.93a.37.37,0,0,1,.26-.42l5.09-2Z"/><path class="cls-9" d="M97.8,390.39c0,1.15,0,2.31,0,3.46a.69.69,0,0,1-.22.47q-3,2.42-6,4.78a.59.59,0,0,1-.47.08Q87.58,398,84,396.81a.54.54,0,0,1-.31-.35q-.48-1.9-.9-3.81a.83.83,0,0,1,.09-.56,18,18,0,0,1,9-7.59.72.72,0,0,1,.5,0c1.68.65,3.36,1.33,5,2a.41.41,0,0,1,.31.47C97.8,388.1,97.8,389.25,97.8,390.39Z"/><path class="cls-9" d="M80.24,402.13a2.78,2.78,0,0,1,.29-.57c.89-1.09,1.8-2.17,2.69-3.26a.35.35,0,0,1,.45-.13l7,2.36a.53.53,0,0,1,.3.32q.91,3.58,1.8,7.19a.52.52,0,0,1-.09.4c-1.13,1.53-2.27,3.06-3.42,4.57a.53.53,0,0,1-.41.17c-1.58-.24-3.15-.49-4.73-.75a.55.55,0,0,1-.32-.22,17.83,17.83,0,0,1-3.39-8.56c0-.25,0-.51-.07-.76l-.06-.72Z"/><path class="cls-9" d="M116.76,402.17a18.89,18.89,0,0,1-3.59,10,.61.61,0,0,1-.36.23c-1.55.26-3.1.5-4.66.73a.56.56,0,0,1-.43-.18q-1.73-2.25-3.42-4.52a.62.62,0,0,1-.09-.48q.87-3.56,1.77-7.11a.63.63,0,0,1,.36-.37l7-2.33a.4.4,0,0,1,.51.15c.87,1.07,1.77,2.13,2.64,3.2A3.19,3.19,0,0,1,116.76,402.17Z"/><path class="cls-9" d="M98.5,409.11h4.19a.6.6,0,0,1,.54.27q1.65,2.21,3.33,4.39a.44.44,0,0,1,0,.57c-.81,1.39-1.59,2.79-2.4,4.18a.82.82,0,0,1-.41.35,18.28,18.28,0,0,1-10,.19,1,1,0,0,1-.61-.45c-.9-1.44-1.82-2.87-2.74-4.3a.4.4,0,0,1,0-.56c1.11-1.45,2.2-2.91,3.29-4.38a.58.58,0,0,1,.54-.26Z"/><polygon class="cls-25" points="140.5 401.53 140.5 404.64 137.81 403.08 135.12 401.53 137.81 399.98 140.5 398.43 140.5 401.53"/><line class="cls-26" x1="141.5" y1="388.03" x2="141.5" y2="415.03"/><path class="cls-8" d="M79,472.83v-2.74a1.76,1.76,0,0,0,.07-.33c.09-.66.14-1.33.27-2a19.6,19.6,0,0,1,16.18-15.58c.53-.08,4.51-.16,4.6-.15.66.08,1.34.12,2,.25a19.31,19.31,0,0,1,12.69,8.5,19.5,19.5,0,0,1-3.86,25.66c-5.53,4.48-11.83,5.74-18.56,3.48-7.26-2.43-11.58-7.64-13.09-15.15C79.16,474.14,79.1,473.48,79,472.83Zm25.75-18.43-.21.08-5.09,2a.37.37,0,0,0-.26.42c0,2.31,0,4.62,0,6.93a.69.69,0,0,0,.22.47q3,2.42,6,4.78a.6.6,0,0,0,.47.08q3.56-1.17,7.1-2.37a.58.58,0,0,0,.32-.35q.47-1.9.9-3.81a.79.79,0,0,0-.09-.52,18.15,18.15,0,0,0-9.08-7.65Zm-7,6c0-1.14,0-2.29,0-3.43a.41.41,0,0,0-.31-.47c-1.69-.66-3.37-1.34-5-2a.72.72,0,0,0-.5,0,18,18,0,0,0-9,7.59.83.83,0,0,0-.09.56q.42,1.91.9,3.81a.54.54,0,0,0,.31.35q3.54,1.2,7.1,2.37a.59.59,0,0,0,.47-.08q3-2.37,6-4.78a.69.69,0,0,0,.22-.47C97.81,462.7,97.8,461.54,97.8,460.39ZM80.24,472.13l.07,0,.06.72c0,.25,0,.51.07.76a17.83,17.83,0,0,0,3.39,8.56.55.55,0,0,0,.32.22c1.58.26,3.15.51,4.73.75a.53.53,0,0,0,.41-.17c1.15-1.51,2.29-3,3.42-4.57a.52.52,0,0,0,.09-.4q-.89-3.6-1.8-7.19a.53.53,0,0,0-.3-.32l-7-2.36a.35.35,0,0,0-.45.13c-.89,1.09-1.8,2.17-2.69,3.26A2.78,2.78,0,0,0,80.24,472.13Zm36.52,0a3.19,3.19,0,0,0-.32-.64c-.87-1.07-1.77-2.13-2.64-3.2a.4.4,0,0,0-.51-.15l-7,2.33a.63.63,0,0,0-.36.37q-.9,3.56-1.77,7.11a.62.62,0,0,0,.09.48q1.7,2.26,3.42,4.52a.56.56,0,0,0,.43.18c1.56-.23,3.11-.47,4.66-.73a.61.61,0,0,0,.36-.23A18.89,18.89,0,0,0,116.76,472.17ZM98.5,479.11H94.32a.58.58,0,0,0-.54.26c-1.09,1.47-2.18,2.93-3.29,4.38a.4.4,0,0,0,0,.56c.92,1.43,1.84,2.86,2.74,4.3a1,1,0,0,0,.61.45,18.28,18.28,0,0,0,10-.19.82.82,0,0,0,.41-.35c.81-1.39,1.59-2.79,2.4-4.18a.44.44,0,0,0,0-.57q-1.68-2.19-3.33-4.39a.6.6,0,0,0-.54-.27Z"/><path class="cls-9" d="M104.75,454.4l.26.08a18.15,18.15,0,0,1,9.08,7.65.79.79,0,0,1,.09.52q-.44,1.91-.9,3.81a.58.58,0,0,1-.32.35q-3.54,1.2-7.1,2.37a.6.6,0,0,1-.47-.08q-3-2.37-6-4.78a.69.69,0,0,1-.22-.47c0-2.31,0-4.62,0-6.93a.37.37,0,0,1,.26-.42l5.09-2Z"/><path class="cls-9" d="M97.8,460.39c0,1.15,0,2.31,0,3.46a.69.69,0,0,1-.22.47q-3,2.42-6,4.78a.59.59,0,0,1-.47.08Q87.58,468,84,466.81a.54.54,0,0,1-.31-.35q-.48-1.9-.9-3.81a.83.83,0,0,1,.09-.56,18,18,0,0,1,9-7.59.72.72,0,0,1,.5,0c1.68.65,3.36,1.33,5,2a.41.41,0,0,1,.31.47C97.8,458.1,97.8,459.25,97.8,460.39Z"/><path class="cls-9" d="M80.24,472.13a2.78,2.78,0,0,1,.29-.57c.89-1.09,1.8-2.17,2.69-3.26a.35.35,0,0,1,.45-.13l7,2.36a.53.53,0,0,1,.3.32q.91,3.58,1.8,7.19a.52.52,0,0,1-.09.4c-1.13,1.53-2.27,3.06-3.42,4.57a.53.53,0,0,1-.41.17c-1.58-.24-3.15-.49-4.73-.75a.55.55,0,0,1-.32-.22,17.83,17.83,0,0,1-3.39-8.56c0-.25,0-.51-.07-.76l-.06-.72Z"/><path class="cls-9" d="M116.76,472.17a18.89,18.89,0,0,1-3.59,10,.61.61,0,0,1-.36.23c-1.55.26-3.1.5-4.66.73a.56.56,0,0,1-.43-.18q-1.73-2.25-3.42-4.52a.62.62,0,0,1-.09-.48q.87-3.56,1.77-7.11a.63.63,0,0,1,.36-.37l7-2.33a.4.4,0,0,1,.51.15c.87,1.07,1.77,2.13,2.64,3.2A3.19,3.19,0,0,1,116.76,472.17Z"/><path class="cls-9" d="M98.5,479.11h4.19a.6.6,0,0,1,.54.27q1.65,2.21,3.33,4.39a.44.44,0,0,1,0,.57c-.81,1.39-1.59,2.79-2.4,4.18a.82.82,0,0,1-.41.35,18.28,18.28,0,0,1-10,.19,1,1,0,0,1-.61-.45c-.9-1.44-1.82-2.87-2.74-4.3a.4.4,0,0,1,0-.56c1.11-1.45,2.2-2.91,3.29-4.38a.58.58,0,0,1,.54-.26Z"/><polygon class="cls-25" points="140.5 471.53 140.5 474.64 137.81 473.08 135.12 471.53 137.81 469.98 140.5 468.43 140.5 471.53"/><line class="cls-26" x1="141.5" y1="458.03" x2="141.5" y2="485.03"/><path class="cls-8" d="M436,190.33v-2.74a1.94,1.94,0,0,0,.07-.33c.09-.66.14-1.33.27-2a19.57,19.57,0,0,1,16.18-15.58c.53-.08,4.51-.17,4.6-.16.66.09,1.34.13,2,.26a19.27,19.27,0,0,1,12.69,8.5,19.47,19.47,0,0,1-22.42,29.14c-7.26-2.43-11.58-7.65-13.09-15.15C436.16,191.63,436.1,191,436,190.33Zm25.75-18.44-.21.08c-1.7.68-3.39,1.36-5.09,2a.38.38,0,0,0-.26.43c0,2.31,0,4.62,0,6.93a.69.69,0,0,0,.22.47q3,2.4,6,4.78a.6.6,0,0,0,.47.07q3.56-1.15,7.1-2.36a.65.65,0,0,0,.32-.35q.47-1.91.9-3.81a.8.8,0,0,0-.09-.53A18.13,18.13,0,0,0,462,172Zm-6.95,6c0-1.14,0-2.28,0-3.42a.43.43,0,0,0-.31-.48c-1.69-.65-3.37-1.33-5.05-2a.78.78,0,0,0-.5,0,18.14,18.14,0,0,0-9,7.59.85.85,0,0,0-.09.56q.42,1.92.9,3.81a.58.58,0,0,0,.31.36q3.54,1.2,7.1,2.36a.59.59,0,0,0,.47-.07q3-2.39,6-4.78a.69.69,0,0,0,.22-.47C454.81,180.19,454.8,179,454.8,177.88Zm-17.56,11.75.07,0,.06.72c0,.25,0,.5.07.75a17.83,17.83,0,0,0,3.39,8.57.55.55,0,0,0,.32.22c1.58.26,3.15.51,4.73.75a.57.57,0,0,0,.41-.17q1.72-2.28,3.42-4.57a.54.54,0,0,0,.09-.41c-.59-2.4-1.19-4.79-1.8-7.19a.59.59,0,0,0-.3-.32l-7-2.35a.35.35,0,0,0-.45.13c-.89,1.09-1.8,2.16-2.69,3.25A3.14,3.14,0,0,0,437.24,189.63Zm36.52,0a2.94,2.94,0,0,0-.32-.64c-.87-1.08-1.77-2.13-2.64-3.2a.4.4,0,0,0-.51-.15c-2.32.78-4.64,1.54-7,2.33a.63.63,0,0,0-.36.37c-.6,2.36-1.19,4.74-1.77,7.11a.6.6,0,0,0,.09.47q1.69,2.28,3.42,4.52a.57.57,0,0,0,.43.19c1.56-.23,3.11-.48,4.66-.74a.65.65,0,0,0,.36-.22A18.89,18.89,0,0,0,473.76,189.67Zm-18.26,6.94h-4.18a.6.6,0,0,0-.54.26c-1.09,1.47-2.18,2.93-3.29,4.39a.4.4,0,0,0,0,.56c.92,1.42,1.84,2.86,2.74,4.29a.93.93,0,0,0,.61.45,18.28,18.28,0,0,0,9.95-.18.82.82,0,0,0,.41-.35c.81-1.39,1.59-2.8,2.4-4.19a.43.43,0,0,0,0-.56q-1.68-2.19-3.33-4.4a.62.62,0,0,0-.54-.27Z"/><path class="cls-9" d="M461.75,171.89l.26.09a18.13,18.13,0,0,1,9.08,7.64.8.8,0,0,1,.09.53q-.44,1.9-.9,3.81a.65.65,0,0,1-.32.35q-3.54,1.2-7.1,2.36a.6.6,0,0,1-.47-.07q-3-2.39-6-4.78a.69.69,0,0,1-.22-.47c0-2.31,0-4.62,0-6.93a.38.38,0,0,1,.26-.43c1.7-.66,3.39-1.34,5.09-2Z"/><path class="cls-9" d="M454.8,177.88c0,1.16,0,2.31,0,3.47a.69.69,0,0,1-.22.47q-3,2.4-6,4.78a.59.59,0,0,1-.47.07q-3.56-1.15-7.1-2.36a.58.58,0,0,1-.31-.36q-.48-1.89-.9-3.81a.85.85,0,0,1,.09-.56,18.14,18.14,0,0,1,9-7.59.78.78,0,0,1,.5,0c1.68.65,3.36,1.33,5.05,2a.43.43,0,0,1,.31.48C454.8,175.6,454.8,176.74,454.8,177.88Z"/><path class="cls-9" d="M437.24,189.63a3.14,3.14,0,0,1,.29-.58c.89-1.09,1.8-2.16,2.69-3.25a.35.35,0,0,1,.45-.13l7,2.35a.59.59,0,0,1,.3.32c.61,2.4,1.21,4.79,1.8,7.19a.54.54,0,0,1-.09.41q-1.69,2.3-3.42,4.57a.57.57,0,0,1-.41.17c-1.58-.24-3.15-.49-4.73-.75a.55.55,0,0,1-.32-.22,17.83,17.83,0,0,1-3.39-8.57c0-.25-.05-.5-.07-.75l-.06-.72Z"/><path class="cls-9" d="M473.76,189.67a18.89,18.89,0,0,1-3.59,10,.65.65,0,0,1-.36.22c-1.55.26-3.1.51-4.66.74a.57.57,0,0,1-.43-.19Q463,198.25,461.3,196a.6.6,0,0,1-.09-.47c.58-2.37,1.17-4.75,1.77-7.11a.63.63,0,0,1,.36-.37c2.31-.79,4.63-1.55,7-2.33a.4.4,0,0,1,.51.15c.87,1.07,1.77,2.12,2.64,3.2A2.94,2.94,0,0,1,473.76,189.67Z"/><path class="cls-9" d="M455.5,196.61h4.19a.62.62,0,0,1,.54.27q1.65,2.2,3.33,4.4a.43.43,0,0,1,0,.56c-.81,1.39-1.59,2.8-2.4,4.19a.82.82,0,0,1-.41.35,18.28,18.28,0,0,1-9.95.18.93.93,0,0,1-.61-.45c-.9-1.43-1.82-2.87-2.74-4.29a.4.4,0,0,1,0-.56c1.11-1.46,2.2-2.92,3.29-4.39a.6.6,0,0,1,.54-.26Z"/><polygon class="cls-25" points="497.5 189.03 497.5 192.13 494.81 190.58 492.12 189.03 494.81 187.48 497.5 185.92 497.5 189.03"/><line class="cls-26" x1="498.5" y1="175.53" x2="498.5" y2="202.53"/><path class="cls-8" d="M437,263.33v-2.74a1.94,1.94,0,0,0,.07-.33c.09-.66.14-1.33.27-2a19.57,19.57,0,0,1,16.18-15.58c.53-.08,4.51-.17,4.6-.16.66.09,1.34.13,2,.26a19.29,19.29,0,0,1,12.69,8.49,19.47,19.47,0,0,1-22.42,29.15c-7.26-2.43-11.58-7.65-13.09-15.15C437.16,264.63,437.1,264,437,263.33Zm25.75-18.44-.21.08c-1.7.68-3.39,1.36-5.09,2a.38.38,0,0,0-.26.43c0,2.31,0,4.62,0,6.93a.69.69,0,0,0,.22.47q3,2.4,6,4.78a.6.6,0,0,0,.47.07q3.56-1.16,7.1-2.36a.65.65,0,0,0,.32-.35q.47-1.9.9-3.81a.8.8,0,0,0-.09-.53A18.13,18.13,0,0,0,463,245Zm-6.95,6c0-1.14,0-2.28,0-3.42a.43.43,0,0,0-.31-.48c-1.69-.65-3.37-1.33-5.05-2a.78.78,0,0,0-.5,0,18.14,18.14,0,0,0-9,7.59.84.84,0,0,0-.09.56q.42,1.92.9,3.81a.58.58,0,0,0,.31.36q3.54,1.2,7.1,2.36a.59.59,0,0,0,.47-.07q3-2.39,6-4.78a.69.69,0,0,0,.22-.47C455.81,253.19,455.8,252,455.8,250.88Zm-17.56,11.75.07,0,.06.72c0,.25,0,.5.07.75a17.83,17.83,0,0,0,3.39,8.57.55.55,0,0,0,.32.22c1.58.26,3.15.51,4.73.75a.57.57,0,0,0,.41-.17q1.72-2.28,3.42-4.57a.54.54,0,0,0,.09-.41c-.59-2.4-1.19-4.79-1.8-7.19a.59.59,0,0,0-.3-.32l-7-2.35a.35.35,0,0,0-.45.13c-.89,1.09-1.8,2.16-2.69,3.25A3.14,3.14,0,0,0,438.24,262.63Zm36.52,0a3.48,3.48,0,0,0-.32-.64c-.87-1.07-1.77-2.12-2.64-3.19a.4.4,0,0,0-.51-.15c-2.32.78-4.64,1.54-7,2.33a.63.63,0,0,0-.36.37c-.6,2.36-1.19,4.74-1.77,7.11a.6.6,0,0,0,.09.47q1.69,2.28,3.42,4.52a.57.57,0,0,0,.43.19c1.56-.23,3.11-.48,4.66-.74a.65.65,0,0,0,.36-.22A18.89,18.89,0,0,0,474.76,262.66Zm-18.26,6.95h-4.18a.6.6,0,0,0-.54.26c-1.09,1.47-2.18,2.93-3.29,4.39a.4.4,0,0,0,0,.56c.92,1.42,1.84,2.85,2.74,4.29a.93.93,0,0,0,.61.45,18.28,18.28,0,0,0,9.95-.18.82.82,0,0,0,.41-.35c.81-1.39,1.59-2.8,2.4-4.19a.43.43,0,0,0,0-.56q-1.68-2.19-3.33-4.4a.62.62,0,0,0-.54-.27Z"/><path class="cls-9" d="M462.75,244.89l.26.09a18.13,18.13,0,0,1,9.08,7.64.8.8,0,0,1,.09.53q-.44,1.9-.9,3.81a.65.65,0,0,1-.32.35q-3.54,1.2-7.1,2.36a.6.6,0,0,1-.47-.07q-3-2.39-6-4.78a.69.69,0,0,1-.22-.47c0-2.31,0-4.62,0-6.93a.38.38,0,0,1,.26-.43c1.7-.66,3.39-1.34,5.09-2Z"/><path class="cls-9" d="M455.8,250.88c0,1.16,0,2.31,0,3.47a.69.69,0,0,1-.22.47q-3,2.4-6,4.78a.59.59,0,0,1-.47.07q-3.56-1.16-7.1-2.36a.58.58,0,0,1-.31-.36q-.48-1.89-.9-3.81a.84.84,0,0,1,.09-.56,18.14,18.14,0,0,1,9-7.59.78.78,0,0,1,.5,0c1.68.65,3.36,1.33,5.05,2a.43.43,0,0,1,.31.48C455.8,248.6,455.8,249.74,455.8,250.88Z"/><path class="cls-9" d="M438.24,262.63a3.14,3.14,0,0,1,.29-.58c.89-1.09,1.8-2.16,2.69-3.25a.35.35,0,0,1,.45-.13l7,2.35a.59.59,0,0,1,.3.32c.61,2.4,1.21,4.79,1.8,7.19a.54.54,0,0,1-.09.41q-1.69,2.3-3.42,4.57a.57.57,0,0,1-.41.17c-1.58-.24-3.15-.49-4.73-.75a.55.55,0,0,1-.32-.22,17.83,17.83,0,0,1-3.39-8.57c0-.25-.05-.5-.07-.75l-.06-.72Z"/><path class="cls-9" d="M474.76,262.66a18.89,18.89,0,0,1-3.59,10,.65.65,0,0,1-.36.22c-1.55.26-3.1.51-4.66.74a.57.57,0,0,1-.43-.19Q464,271.25,462.3,269a.6.6,0,0,1-.09-.47c.58-2.37,1.17-4.75,1.77-7.11a.63.63,0,0,1,.36-.37c2.31-.79,4.63-1.55,7-2.33a.4.4,0,0,1,.51.15c.87,1.07,1.77,2.12,2.64,3.19A3.48,3.48,0,0,1,474.76,262.66Z"/><path class="cls-9" d="M456.5,269.61h4.19a.62.62,0,0,1,.54.27q1.65,2.2,3.33,4.4a.43.43,0,0,1,0,.56c-.81,1.39-1.59,2.8-2.4,4.19a.82.82,0,0,1-.41.35,18.28,18.28,0,0,1-9.95.18.93.93,0,0,1-.61-.45c-.9-1.44-1.82-2.87-2.74-4.29a.4.4,0,0,1,0-.56c1.11-1.46,2.2-2.92,3.29-4.39a.6.6,0,0,1,.54-.26Z"/><polygon class="cls-25" points="498.5 262.03 498.5 265.13 495.81 263.58 493.12 262.03 495.81 260.48 498.5 258.92 498.5 262.03"/><line class="cls-26" x1="499.5" y1="248.53" x2="499.5" y2="275.53"/><path class="cls-8" d="M437,333.21v-2.74a1.94,1.94,0,0,0,.07-.33c.09-.66.14-1.34.27-2a19.57,19.57,0,0,1,16.18-15.58c.53-.08,4.51-.17,4.6-.16.66.09,1.34.13,2,.26a19.26,19.26,0,0,1,12.69,8.49,19.47,19.47,0,0,1-22.42,29.15c-7.26-2.44-11.58-7.65-13.09-15.16C437.16,334.51,437.1,333.86,437,333.21Zm25.75-18.44-.21.08c-1.7.68-3.39,1.36-5.09,2a.38.38,0,0,0-.26.43c0,2.31,0,4.62,0,6.93a.69.69,0,0,0,.22.47q3,2.4,6,4.78a.6.6,0,0,0,.47.07q3.56-1.16,7.1-2.36a.65.65,0,0,0,.32-.35q.47-1.9.9-3.81a.8.8,0,0,0-.09-.53,18.13,18.13,0,0,0-9.08-7.64Zm-6.95,6c0-1.14,0-2.28,0-3.42a.43.43,0,0,0-.31-.48c-1.69-.65-3.37-1.33-5.05-2a.78.78,0,0,0-.5,0,18.14,18.14,0,0,0-9,7.59.84.84,0,0,0-.09.56q.42,1.92.9,3.81a.58.58,0,0,0,.31.36q3.54,1.2,7.1,2.36a.59.59,0,0,0,.47-.07q3-2.39,6-4.78a.69.69,0,0,0,.22-.47C455.81,323.07,455.8,321.92,455.8,320.76Zm-17.56,11.75.07,0,.06.72c0,.25,0,.5.07.75a17.83,17.83,0,0,0,3.39,8.57.55.55,0,0,0,.32.22c1.58.26,3.15.51,4.73.74a.52.52,0,0,0,.41-.16q1.72-2.28,3.42-4.57a.54.54,0,0,0,.09-.41c-.59-2.4-1.19-4.79-1.8-7.19a.56.56,0,0,0-.3-.32l-7-2.35a.35.35,0,0,0-.45.13c-.89,1.09-1.8,2.16-2.69,3.25A3.14,3.14,0,0,0,438.24,332.51Zm36.52,0a3.48,3.48,0,0,0-.32-.64c-.87-1.07-1.77-2.12-2.64-3.19a.4.4,0,0,0-.51-.15c-2.32.78-4.64,1.54-7,2.33a.63.63,0,0,0-.36.37c-.6,2.36-1.19,4.74-1.77,7.11a.6.6,0,0,0,.09.47c1.13,1.52,2.27,3,3.42,4.52a.57.57,0,0,0,.43.19c1.56-.23,3.11-.48,4.66-.74a.65.65,0,0,0,.36-.22A18.92,18.92,0,0,0,474.76,332.54Zm-18.26,6.95h-4.18a.6.6,0,0,0-.54.26c-1.09,1.47-2.18,2.93-3.29,4.38a.42.42,0,0,0,0,.57c.92,1.42,1.84,2.85,2.74,4.29a.93.93,0,0,0,.61.45,18.19,18.19,0,0,0,9.95-.19.75.75,0,0,0,.41-.34c.81-1.39,1.59-2.8,2.4-4.19a.43.43,0,0,0,0-.56q-1.68-2.19-3.33-4.4a.62.62,0,0,0-.54-.27Z"/><path class="cls-9" d="M462.75,314.77l.26.09a18.13,18.13,0,0,1,9.08,7.64.8.8,0,0,1,.09.53q-.44,1.91-.9,3.81a.65.65,0,0,1-.32.35q-3.54,1.2-7.1,2.36a.6.6,0,0,1-.47-.07q-3-2.39-6-4.78a.69.69,0,0,1-.22-.47c0-2.31,0-4.62,0-6.93a.38.38,0,0,1,.26-.43c1.7-.66,3.39-1.34,5.09-2Z"/><path class="cls-9" d="M455.8,320.76c0,1.16,0,2.31,0,3.47a.69.69,0,0,1-.22.47q-3,2.4-6,4.78a.59.59,0,0,1-.47.07q-3.56-1.16-7.1-2.36a.58.58,0,0,1-.31-.36q-.48-1.89-.9-3.81a.84.84,0,0,1,.09-.56,18.14,18.14,0,0,1,9-7.59.78.78,0,0,1,.5,0c1.68.65,3.36,1.33,5.05,2a.43.43,0,0,1,.31.48C455.8,318.48,455.8,319.62,455.8,320.76Z"/><path class="cls-9" d="M438.24,332.51a3.14,3.14,0,0,1,.29-.58c.89-1.09,1.8-2.16,2.69-3.25a.35.35,0,0,1,.45-.13l7,2.35a.56.56,0,0,1,.3.32c.61,2.4,1.21,4.79,1.8,7.19a.54.54,0,0,1-.09.41q-1.69,2.3-3.42,4.57a.52.52,0,0,1-.41.16c-1.58-.23-3.15-.48-4.73-.74a.55.55,0,0,1-.32-.22,17.83,17.83,0,0,1-3.39-8.57c0-.25-.05-.5-.07-.75l-.06-.72Z"/><path class="cls-9" d="M474.76,332.54a18.92,18.92,0,0,1-3.59,10,.65.65,0,0,1-.36.22c-1.55.26-3.1.51-4.66.74a.57.57,0,0,1-.43-.19c-1.15-1.5-2.29-3-3.42-4.52a.6.6,0,0,1-.09-.47c.58-2.37,1.17-4.75,1.77-7.11a.63.63,0,0,1,.36-.37c2.31-.79,4.63-1.55,7-2.33a.4.4,0,0,1,.51.15c.87,1.07,1.77,2.12,2.64,3.19A3.48,3.48,0,0,1,474.76,332.54Z"/><path class="cls-9" d="M456.5,339.49h4.19a.62.62,0,0,1,.54.27q1.65,2.21,3.33,4.4a.43.43,0,0,1,0,.56c-.81,1.39-1.59,2.8-2.4,4.19a.75.75,0,0,1-.41.34,18.19,18.19,0,0,1-9.95.19.93.93,0,0,1-.61-.45c-.9-1.44-1.82-2.87-2.74-4.29a.42.42,0,0,1,0-.57c1.11-1.45,2.2-2.91,3.29-4.38a.6.6,0,0,1,.54-.26Z"/><polygon class="cls-25" points="498.5 331.91 498.5 335.01 495.81 333.46 493.12 331.91 495.81 330.36 498.5 328.8 498.5 331.91"/><line class="cls-26" x1="499.5" y1="318.41" x2="499.5" y2="345.41"/><path class="cls-8" d="M437,402.83v-2.74a1.76,1.76,0,0,0,.07-.33c.09-.66.14-1.33.27-2a19.6,19.6,0,0,1,16.18-15.58c.53-.08,4.51-.16,4.6-.15.66.08,1.34.12,2,.25a19.31,19.31,0,0,1,12.69,8.5,19.5,19.5,0,0,1-3.86,25.66c-5.53,4.48-11.83,5.74-18.56,3.48-7.26-2.43-11.58-7.64-13.09-15.15C437.16,404.14,437.1,403.48,437,402.83Zm25.75-18.43-.21.08-5.09,2a.37.37,0,0,0-.26.42c0,2.31,0,4.62,0,6.93a.69.69,0,0,0,.22.47q3,2.42,6,4.78a.6.6,0,0,0,.47.08q3.56-1.17,7.1-2.37a.58.58,0,0,0,.32-.35q.47-1.9.9-3.81a.79.79,0,0,0-.09-.52,18.15,18.15,0,0,0-9.08-7.65Zm-6.95,6c0-1.14,0-2.29,0-3.43a.41.41,0,0,0-.31-.47c-1.69-.66-3.37-1.34-5.05-2a.72.72,0,0,0-.5,0,18,18,0,0,0-9,7.59.83.83,0,0,0-.09.56q.42,1.91.9,3.81a.54.54,0,0,0,.31.35q3.54,1.2,7.1,2.37a.59.59,0,0,0,.47-.08q3-2.37,6-4.78a.69.69,0,0,0,.22-.47C455.81,392.7,455.8,391.54,455.8,390.39Zm-17.56,11.74.07,0,.06.72c0,.25,0,.51.07.76a17.83,17.83,0,0,0,3.39,8.56.55.55,0,0,0,.32.22c1.58.26,3.15.51,4.73.75a.53.53,0,0,0,.41-.17c1.15-1.51,2.29-3,3.42-4.57a.52.52,0,0,0,.09-.4q-.89-3.6-1.8-7.19a.53.53,0,0,0-.3-.32l-7-2.36a.35.35,0,0,0-.45.13c-.89,1.09-1.8,2.17-2.69,3.26A2.78,2.78,0,0,0,438.24,402.13Zm36.52,0a3.19,3.19,0,0,0-.32-.64c-.87-1.07-1.77-2.13-2.64-3.2a.4.4,0,0,0-.51-.15l-7,2.33a.63.63,0,0,0-.36.37q-.9,3.56-1.77,7.11a.62.62,0,0,0,.09.48q1.69,2.26,3.42,4.52a.56.56,0,0,0,.43.18c1.56-.23,3.11-.47,4.66-.73a.61.61,0,0,0,.36-.23A18.89,18.89,0,0,0,474.76,402.17Zm-18.26,6.94h-4.18a.58.58,0,0,0-.54.26c-1.09,1.47-2.18,2.93-3.29,4.38a.4.4,0,0,0,0,.56c.92,1.43,1.84,2.86,2.74,4.3a1,1,0,0,0,.61.45,18.28,18.28,0,0,0,9.95-.19.82.82,0,0,0,.41-.35c.81-1.39,1.59-2.79,2.4-4.18a.44.44,0,0,0,0-.57q-1.68-2.19-3.33-4.39a.6.6,0,0,0-.54-.27Z"/><path class="cls-9" d="M462.75,384.4l.26.08a18.15,18.15,0,0,1,9.08,7.65.79.79,0,0,1,.09.52q-.44,1.91-.9,3.81a.58.58,0,0,1-.32.35q-3.54,1.2-7.1,2.37a.6.6,0,0,1-.47-.08q-3-2.37-6-4.78a.69.69,0,0,1-.22-.47c0-2.31,0-4.62,0-6.93a.37.37,0,0,1,.26-.42l5.09-2Z"/><path class="cls-9" d="M455.8,390.39c0,1.15,0,2.31,0,3.46a.69.69,0,0,1-.22.47q-3,2.42-6,4.78a.59.59,0,0,1-.47.08q-3.56-1.17-7.1-2.37a.54.54,0,0,1-.31-.35q-.48-1.9-.9-3.81a.83.83,0,0,1,.09-.56,18,18,0,0,1,9-7.59.72.72,0,0,1,.5,0c1.68.65,3.36,1.33,5.05,2a.41.41,0,0,1,.31.47C455.8,388.1,455.8,389.25,455.8,390.39Z"/><path class="cls-9" d="M438.24,402.13a2.78,2.78,0,0,1,.29-.57c.89-1.09,1.8-2.17,2.69-3.26a.35.35,0,0,1,.45-.13l7,2.36a.53.53,0,0,1,.3.32q.92,3.58,1.8,7.19a.52.52,0,0,1-.09.4c-1.13,1.53-2.27,3.06-3.42,4.57a.53.53,0,0,1-.41.17c-1.58-.24-3.15-.49-4.73-.75a.55.55,0,0,1-.32-.22,17.83,17.83,0,0,1-3.39-8.56c0-.25-.05-.51-.07-.76l-.06-.72Z"/><path class="cls-9" d="M474.76,402.17a18.89,18.89,0,0,1-3.59,10,.61.61,0,0,1-.36.23c-1.55.26-3.1.5-4.66.73a.56.56,0,0,1-.43-.18q-1.73-2.25-3.42-4.52a.62.62,0,0,1-.09-.48q.87-3.56,1.77-7.11a.63.63,0,0,1,.36-.37l7-2.33a.4.4,0,0,1,.51.15c.87,1.07,1.77,2.13,2.64,3.2A3.19,3.19,0,0,1,474.76,402.17Z"/><path class="cls-9" d="M456.5,409.11h4.19a.6.6,0,0,1,.54.27q1.65,2.21,3.33,4.39a.44.44,0,0,1,0,.57c-.81,1.39-1.59,2.79-2.4,4.18a.82.82,0,0,1-.41.35,18.28,18.28,0,0,1-9.95.19,1,1,0,0,1-.61-.45c-.9-1.44-1.82-2.87-2.74-4.3a.4.4,0,0,1,0-.56c1.11-1.45,2.2-2.91,3.29-4.38a.58.58,0,0,1,.54-.26Z"/><polygon class="cls-25" points="498.5 401.53 498.5 404.64 495.81 403.08 493.12 401.53 495.81 399.98 498.5 398.43 498.5 401.53"/><line class="cls-26" x1="499.5" y1="388.03" x2="499.5" y2="415.03"/><path class="cls-8" d="M437,472.83v-2.74a1.76,1.76,0,0,0,.07-.33c.09-.66.14-1.33.27-2a19.6,19.6,0,0,1,16.18-15.58c.53-.08,4.51-.16,4.6-.15.66.08,1.34.12,2,.25a19.31,19.31,0,0,1,12.69,8.5,19.5,19.5,0,0,1-3.86,25.66c-5.53,4.48-11.83,5.74-18.56,3.48-7.26-2.43-11.58-7.64-13.09-15.15C437.16,474.14,437.1,473.48,437,472.83Zm25.75-18.43-.21.08-5.09,2a.37.37,0,0,0-.26.42c0,2.31,0,4.62,0,6.93a.69.69,0,0,0,.22.47q3,2.42,6,4.78a.6.6,0,0,0,.47.08q3.56-1.17,7.1-2.37a.58.58,0,0,0,.32-.35q.47-1.9.9-3.81a.79.79,0,0,0-.09-.52,18.15,18.15,0,0,0-9.08-7.65Zm-6.95,6c0-1.14,0-2.29,0-3.43a.41.41,0,0,0-.31-.47c-1.69-.66-3.37-1.34-5.05-2a.72.72,0,0,0-.5,0,18,18,0,0,0-9,7.59.83.83,0,0,0-.09.56q.42,1.91.9,3.81a.54.54,0,0,0,.31.35q3.54,1.2,7.1,2.37a.59.59,0,0,0,.47-.08q3-2.37,6-4.78a.69.69,0,0,0,.22-.47C455.81,462.7,455.8,461.54,455.8,460.39Zm-17.56,11.74.07,0,.06.72c0,.25,0,.51.07.76a17.83,17.83,0,0,0,3.39,8.56.55.55,0,0,0,.32.22c1.58.26,3.15.51,4.73.75a.53.53,0,0,0,.41-.17c1.15-1.51,2.29-3,3.42-4.57a.52.52,0,0,0,.09-.4q-.89-3.6-1.8-7.19a.53.53,0,0,0-.3-.32l-7-2.36a.35.35,0,0,0-.45.13c-.89,1.09-1.8,2.17-2.69,3.26A2.78,2.78,0,0,0,438.24,472.13Zm36.52,0a3.19,3.19,0,0,0-.32-.64c-.87-1.07-1.77-2.13-2.64-3.2a.4.4,0,0,0-.51-.15l-7,2.33a.63.63,0,0,0-.36.37q-.9,3.56-1.77,7.11a.62.62,0,0,0,.09.48q1.69,2.26,3.42,4.52a.56.56,0,0,0,.43.18c1.56-.23,3.11-.47,4.66-.73a.61.61,0,0,0,.36-.23A18.89,18.89,0,0,0,474.76,472.17Zm-18.26,6.94h-4.18a.58.58,0,0,0-.54.26c-1.09,1.47-2.18,2.93-3.29,4.38a.4.4,0,0,0,0,.56c.92,1.43,1.84,2.86,2.74,4.3a1,1,0,0,0,.61.45,18.28,18.28,0,0,0,9.95-.19.82.82,0,0,0,.41-.35c.81-1.39,1.59-2.79,2.4-4.18a.44.44,0,0,0,0-.57q-1.68-2.19-3.33-4.39a.6.6,0,0,0-.54-.27Z"/><path class="cls-9" d="M462.75,454.4l.26.08a18.15,18.15,0,0,1,9.08,7.65.79.79,0,0,1,.09.52q-.44,1.91-.9,3.81a.58.58,0,0,1-.32.35q-3.54,1.2-7.1,2.37a.6.6,0,0,1-.47-.08q-3-2.37-6-4.78a.69.69,0,0,1-.22-.47c0-2.31,0-4.62,0-6.93a.37.37,0,0,1,.26-.42l5.09-2Z"/><path class="cls-9" d="M455.8,460.39c0,1.15,0,2.31,0,3.46a.69.69,0,0,1-.22.47q-3,2.42-6,4.78a.59.59,0,0,1-.47.08q-3.56-1.17-7.1-2.37a.54.54,0,0,1-.31-.35q-.48-1.9-.9-3.81a.83.83,0,0,1,.09-.56,18,18,0,0,1,9-7.59.72.72,0,0,1,.5,0c1.68.65,3.36,1.33,5.05,2a.41.41,0,0,1,.31.47C455.8,458.1,455.8,459.25,455.8,460.39Z"/><path class="cls-9" d="M438.24,472.13a2.78,2.78,0,0,1,.29-.57c.89-1.09,1.8-2.17,2.69-3.26a.35.35,0,0,1,.45-.13l7,2.36a.53.53,0,0,1,.3.32q.92,3.58,1.8,7.19a.52.52,0,0,1-.09.4c-1.13,1.53-2.27,3.06-3.42,4.57a.53.53,0,0,1-.41.17c-1.58-.24-3.15-.49-4.73-.75a.55.55,0,0,1-.32-.22,17.83,17.83,0,0,1-3.39-8.56c0-.25-.05-.51-.07-.76l-.06-.72Z"/><path class="cls-9" d="M474.76,472.17a18.89,18.89,0,0,1-3.59,10,.61.61,0,0,1-.36.23c-1.55.26-3.1.5-4.66.73a.56.56,0,0,1-.43-.18q-1.73-2.25-3.42-4.52a.62.62,0,0,1-.09-.48q.87-3.56,1.77-7.11a.63.63,0,0,1,.36-.37l7-2.33a.4.4,0,0,1,.51.15c.87,1.07,1.77,2.13,2.64,3.2A3.19,3.19,0,0,1,474.76,472.17Z"/><path class="cls-9" d="M456.5,479.11h4.19a.6.6,0,0,1,.54.27q1.65,2.21,3.33,4.39a.44.44,0,0,1,0,.57c-.81,1.39-1.59,2.79-2.4,4.18a.82.82,0,0,1-.41.35,18.28,18.28,0,0,1-9.95.19,1,1,0,0,1-.61-.45c-.9-1.44-1.82-2.87-2.74-4.3a.4.4,0,0,1,0-.56c1.11-1.45,2.2-2.91,3.29-4.38a.58.58,0,0,1,.54-.26Z"/><polygon class="cls-25" points="498.5 471.53 498.5 474.64 495.81 473.08 493.12 471.53 495.81 469.98 498.5 468.43 498.5 471.53"/><line class="cls-26" x1="499.5" y1="458.03" x2="499.5" y2="485.03"/><path class="cls-8" d="M80,190.37v-2.75a1.76,1.76,0,0,0,.07-.33c.09-.66.14-1.33.27-2a19.6,19.6,0,0,1,16.18-15.58l1.61-.22h2.74a1.82,1.82,0,0,0,.25.07c.66.08,1.34.12,2,.25a19.31,19.31,0,0,1,12.69,8.5A19.5,19.5,0,0,1,111.94,204c-5.53,4.48-11.83,5.74-18.56,3.48-7.26-2.43-11.58-7.64-13.09-15.15C80.16,191.67,80.1,191,80,190.37Zm25.75-18.44-.21.08-5.09,2a.37.37,0,0,0-.26.42c0,2.31,0,4.62,0,6.93a.69.69,0,0,0,.22.47q3,2.42,6,4.78a.6.6,0,0,0,.47.08q3.56-1.17,7.1-2.37a.58.58,0,0,0,.32-.35q.47-1.91.9-3.81a.79.79,0,0,0-.09-.52A18.15,18.15,0,0,0,106,172Zm-7,6c0-1.14,0-2.29,0-3.43a.41.41,0,0,0-.31-.47c-1.69-.66-3.37-1.34-5-2a.72.72,0,0,0-.5,0,18,18,0,0,0-9,7.59.83.83,0,0,0-.09.56q.42,1.9.9,3.81a.54.54,0,0,0,.31.35q3.54,1.2,7.1,2.37a.59.59,0,0,0,.47-.08q3-2.37,6-4.78a.69.69,0,0,0,.22-.47C98.81,180.23,98.8,179.07,98.8,177.92ZM81.24,189.66l.07,0,.06.72c0,.25,0,.51.07.76a17.91,17.91,0,0,0,3.39,8.57.58.58,0,0,0,.32.21c1.58.26,3.15.51,4.73.75a.53.53,0,0,0,.41-.17c1.15-1.51,2.29-3,3.42-4.57a.52.52,0,0,0,.09-.4q-.89-3.6-1.8-7.19a.53.53,0,0,0-.3-.32l-7-2.36a.35.35,0,0,0-.45.13c-.89,1.09-1.8,2.17-2.69,3.26A2.78,2.78,0,0,0,81.24,189.66Zm36.52,0a3.19,3.19,0,0,0-.32-.64c-.87-1.07-1.77-2.13-2.64-3.2a.4.4,0,0,0-.51-.15l-7,2.33a.63.63,0,0,0-.36.37q-.9,3.56-1.77,7.12a.61.61,0,0,0,.09.47q1.7,2.26,3.42,4.52a.56.56,0,0,0,.43.18c1.56-.22,3.11-.47,4.66-.73a.61.61,0,0,0,.36-.23A18.89,18.89,0,0,0,117.76,189.7ZM99.5,196.64c-1.39,0-2.79,0-4.18,0a.58.58,0,0,0-.54.26c-1.09,1.47-2.18,2.93-3.29,4.38a.4.4,0,0,0,0,.56c.92,1.43,1.84,2.86,2.74,4.3a1,1,0,0,0,.61.45,18.28,18.28,0,0,0,10-.19.82.82,0,0,0,.41-.35c.81-1.39,1.59-2.79,2.4-4.18a.44.44,0,0,0,0-.57q-1.68-2.19-3.33-4.39a.6.6,0,0,0-.54-.27C102.29,196.65,100.9,196.64,99.5,196.64Z"/><path class="cls-9" d="M105.75,171.93l.26.08a18.15,18.15,0,0,1,9.08,7.65.79.79,0,0,1,.09.52q-.44,1.9-.9,3.81a.58.58,0,0,1-.32.35q-3.54,1.2-7.1,2.37a.6.6,0,0,1-.47-.08q-3-2.37-6-4.78a.69.69,0,0,1-.22-.47c0-2.31,0-4.62,0-6.93a.37.37,0,0,1,.26-.42l5.09-2Z"/><path class="cls-9" d="M98.8,177.92c0,1.15,0,2.31,0,3.46a.69.69,0,0,1-.22.47q-3,2.42-6,4.78a.59.59,0,0,1-.47.08q-3.55-1.17-7.1-2.37a.54.54,0,0,1-.31-.35q-.48-1.91-.9-3.81a.83.83,0,0,1,.09-.56A18,18,0,0,1,93,172a.72.72,0,0,1,.5,0c1.68.65,3.36,1.33,5,2a.41.41,0,0,1,.31.47C98.8,175.63,98.8,176.78,98.8,177.92Z"/><path class="cls-9" d="M81.24,189.66a2.78,2.78,0,0,1,.29-.57c.89-1.09,1.8-2.17,2.69-3.26a.35.35,0,0,1,.45-.13l7,2.36a.53.53,0,0,1,.3.32q.91,3.59,1.8,7.19a.52.52,0,0,1-.09.4c-1.13,1.53-2.27,3.06-3.42,4.57a.53.53,0,0,1-.41.17c-1.58-.24-3.15-.49-4.73-.75a.58.58,0,0,1-.32-.21,17.91,17.91,0,0,1-3.39-8.57c0-.25,0-.51-.07-.76l-.06-.72Z"/><path class="cls-9" d="M117.76,189.7a18.89,18.89,0,0,1-3.59,10,.61.61,0,0,1-.36.23c-1.55.26-3.1.51-4.66.73a.56.56,0,0,1-.43-.18Q107,198.27,105.3,196a.61.61,0,0,1-.09-.47q.87-3.57,1.77-7.12a.63.63,0,0,1,.36-.37l7-2.33a.4.4,0,0,1,.51.15c.87,1.07,1.77,2.13,2.64,3.2A3.19,3.19,0,0,1,117.76,189.7Z"/><path class="cls-9" d="M99.5,196.64c1.4,0,2.79,0,4.19,0a.6.6,0,0,1,.54.27q1.65,2.21,3.33,4.39a.44.44,0,0,1,0,.57c-.81,1.39-1.59,2.79-2.4,4.18a.82.82,0,0,1-.41.35,18.28,18.28,0,0,1-10,.19,1,1,0,0,1-.61-.45c-.9-1.44-1.82-2.87-2.74-4.3a.4.4,0,0,1,0-.56c1.11-1.45,2.2-2.91,3.29-4.38a.58.58,0,0,1,.54-.26C96.71,196.65,98.11,196.64,99.5,196.64Z"/><polygon class="cls-25" points="141.5 189.03 141.5 192.13 138.81 190.58 136.12 189.03 138.81 187.48 141.5 185.92 141.5 189.03"/><line class="cls-26" x1="142.5" y1="175.53" x2="142.5" y2="202.53"/></svg>