<svg id="Camada_2" data-name="Camada 2" xmlns="http://www.w3.org/2000/svg" viewBox="0 0 1264 818"><defs><style>.cls-1{fill:#e50606;}.cls-2{font-size:21px;}.cls-2,.cls-26{font-family:SourceSansPro-Semibold, Source Sans Pro;font-weight:600;}.cls-3{letter-spacing:-0.01em;}.cls-4{letter-spacing:-0.02em;}.cls-5{letter-spacing:0em;}.cls-6{letter-spacing:-0.04em;}.cls-7{letter-spacing:-0.02em;}.cls-8{letter-spacing:-0.02em;}.cls-9{letter-spacing:-0.03em;}.cls-10{letter-spacing:-0.02em;}.cls-11{letter-spacing:0em;}.cls-12{letter-spacing:-0.02em;}.cls-13{letter-spacing:0em;}.cls-14{letter-spacing:-0.02em;}.cls-15{letter-spacing:0em;}.cls-16{letter-spacing:-0.02em;}.cls-17{letter-spacing:0em;}.cls-18{letter-spacing:-0.02em;}.cls-19{letter-spacing:-0.02em;}.cls-20{letter-spacing:-0.07em;}.cls-21{letter-spacing:-0.01em;}.cls-22{letter-spacing:0em;}.cls-23{letter-spacing:-0.01em;}.cls-24{letter-spacing:0.02em;}.cls-25{letter-spacing:-0.02em;}.cls-26{font-size:40px;}.cls-27{letter-spacing:-0.01em;}.cls-28{fill:none;stroke:#000;stroke-linecap:round;stroke-miterlimit:10;}</style></defs><path class="cls-1" d="M145.92,198a19.67,19.67,0,0,0-19.67,19.67c0,10.93,15.43,31.52,19,36.94a.85.85,0,0,0,1.43,0c3.55-5.32,19-25.59,19-37A19.67,19.67,0,0,0,145.92,198Zm.11,35a15.08,15.08,0,1,1,15.08-15.08A15.08,15.08,0,0,1,146,233Z"/><path class="cls-1" d="M153.4,227.33h0v-9.1l3.34,1.32V224A3.35,3.35,0,0,1,153.4,227.33Z"/><path class="cls-1" d="M137.78,227.33h0v-9.1l-3.33,1.32V224A3.34,3.34,0,0,0,137.78,227.33Z"/><polygon class="cls-1" points="148.9 213.44 145.58 211.35 142.26 213.44 138.92 215.49 138.92 227.29 152.26 227.29 152.26 215.49 148.9 213.44"/><rect class="cls-1" x="145.06" y="206.26" width="1.06" height="7.2"/><rect class="cls-1" x="145.07" y="206.3" width="1.03" height="5.02" transform="translate(-63.23 354.41) rotate(-90)"/><text class="cls-2" transform="translate(185.9 228.97)">Ig<tspan class="cls-3" x="16.84" y="0">r</tspan><tspan x="24.46" y="0">eja C</tspan><tspan class="cls-4" x="67.77" y="0">at</tspan><tspan x="85.51" y="0">óli</tspan><tspan class="cls-3" x="108.23" y="0">c</tspan><tspan class="cls-5" x="117.72" y="0">a </tspan><tspan class="cls-6" x="132.76" y="0">P</tspan><tspan x="144.18" y="0">a</tspan><tspan class="cls-3" x="155.02" y="0">r</tspan><tspan class="cls-5" x="162.64" y="0">óquia de San</tspan><tspan class="cls-4" x="278.96" y="0">t</tspan><tspan x="286.21" y="0">o An</tspan><tspan class="cls-4" x="325.41" y="0">t</tspan><tspan class="cls-5" x="332.66" y="0">ônio de </tspan><tspan class="cls-6" x="403.87" y="0">P</tspan><tspan x="415.29" y="0">ádua</tspan></text><path class="cls-1" d="M145.92,288a19.67,19.67,0,0,0-19.67,19.67c0,10.93,15.43,31.52,19,36.94a.85.85,0,0,0,1.43,0c3.55-5.32,19-25.59,19-36.95A19.67,19.67,0,0,0,145.92,288Zm.11,35a15.08,15.08,0,1,1,15.08-15.08A15.08,15.08,0,0,1,146,323Z"/><path class="cls-1" d="M153.4,317.33h0v-9.1l3.34,1.32V314A3.35,3.35,0,0,1,153.4,317.33Z"/><path class="cls-1" d="M137.78,317.33h0v-9.1l-3.33,1.32V314A3.34,3.34,0,0,0,137.78,317.33Z"/><polygon class="cls-1" points="148.9 303.44 145.58 301.36 142.26 303.44 138.92 305.49 138.92 317.29 152.26 317.29 152.26 305.49 148.9 303.44"/><rect class="cls-1" x="145.06" y="296.26" width="1.06" height="7.2"/><rect class="cls-1" x="145.07" y="296.3" width="1.03" height="5.02" transform="translate(-153.23 444.41) rotate(-90)"/><text class="cls-2" transform="translate(185.9 321.47)">Ig<tspan class="cls-3" x="16.84" y="0">r</tspan><tspan x="24.46" y="0">eja Cri</tspan><tspan class="cls-7" x="81.1" y="0">s</tspan><tspan class="cls-8" x="89.73" y="0">t</tspan><tspan x="96.87" y="0">ã Ma</tspan><tspan class="cls-9" x="138.39" y="0">r</tspan><tspan x="145.67" y="0">an</tspan><tspan class="cls-4" x="168.27" y="0">a</tspan><tspan class="cls-8" x="178.77" y="0">t</tspan><tspan x="185.91" y="0">a</tspan></text><path class="cls-1" d="M145.92,383a19.67,19.67,0,0,0-19.67,19.67c0,10.93,15.43,31.52,19,36.94a.85.85,0,0,0,1.43,0c3.55-5.32,19-25.59,19-36.95A19.67,19.67,0,0,0,145.92,383Zm.11,35a15.08,15.08,0,1,1,15.08-15.08A15.08,15.08,0,0,1,146,418Z"/><path class="cls-1" d="M153.4,412.33h0v-9.1l3.34,1.32V409A3.35,3.35,0,0,1,153.4,412.33Z"/><path class="cls-1" d="M137.78,412.33h0v-9.1l-3.33,1.32V409A3.34,3.34,0,0,0,137.78,412.33Z"/><polygon class="cls-1" points="148.9 398.44 145.58 396.36 142.26 398.44 138.92 400.49 138.92 412.29 152.26 412.29 152.26 400.49 148.9 398.44"/><rect class="cls-1" x="145.06" y="391.26" width="1.06" height="7.2"/><rect class="cls-1" x="145.07" y="391.3" width="1.03" height="5.02" transform="translate(-248.23 539.41) rotate(-90)"/><text class="cls-2" transform="translate(185.9 415.22)">Ig<tspan class="cls-3" x="16.84" y="0">r</tspan><tspan x="24.46" y="0">eja </tspan><tspan class="cls-10" x="55.67" y="0">P</tspan><tspan class="cls-3" x="67.43" y="0">e</tspan><tspan class="cls-4" x="77.87" y="0">t</tspan><tspan class="cls-11" x="85.11" y="0">en</tspan><tspan class="cls-12" x="107.52" y="0">c</tspan><tspan class="cls-13" x="116.72" y="0">o</tspan><tspan class="cls-14" x="128.16" y="0">s</tspan><tspan class="cls-8" x="136.79" y="0">t</tspan><tspan x="143.93" y="0">al de Deus</tspan></text><path class="cls-1" d="M145.92,473.5a19.67,19.67,0,0,0-19.67,19.67c0,10.93,15.43,31.52,19,36.94a.85.85,0,0,0,1.43,0c3.55-5.32,19-25.59,19-36.95A19.67,19.67,0,0,0,145.92,473.5Zm.11,35a15.08,15.08,0,1,1,15.08-15.08A15.08,15.08,0,0,1,146,508.47Z"/><path class="cls-1" d="M153.4,502.83h0v-9.1l3.34,1.32v4.44A3.35,3.35,0,0,1,153.4,502.83Z"/><path class="cls-1" d="M137.78,502.83h0v-9.1l-3.33,1.32v4.44A3.34,3.34,0,0,0,137.78,502.83Z"/><polygon class="cls-1" points="148.9 488.94 145.58 486.86 142.26 488.94 138.92 490.99 138.92 502.79 152.26 502.79 152.26 490.99 148.9 488.94"/><rect class="cls-1" x="145.06" y="481.76" width="1.06" height="7.2"/><rect class="cls-1" x="145.07" y="481.8" width="1.03" height="5.02" transform="translate(-338.73 629.91) rotate(-90)"/><text class="cls-2" transform="translate(185.9 506.97)">Ig<tspan class="cls-3" x="16.84" y="0">r</tspan><tspan x="24.46" y="0">eja Divina </tspan><tspan class="cls-10" x="116.99" y="0">P</tspan><tspan x="128.75" y="0">en</tspan><tspan class="cls-4" x="151.16" y="0">t</tspan><tspan class="cls-15" x="158.4" y="0">e</tspan><tspan class="cls-16" x="169.05" y="0">c</tspan><tspan class="cls-17" x="178.25" y="0">o</tspan><tspan class="cls-18" x="189.69" y="0">s</tspan><tspan class="cls-19" x="198.32" y="0">t</tspan><tspan x="205.46" y="0">al</tspan></text><path class="cls-1" d="M145.92,559a19.67,19.67,0,0,0-19.67,19.67c0,10.93,15.43,31.52,19,36.94a.85.85,0,0,0,1.43,0c3.55-5.32,19-25.59,19-37A19.67,19.67,0,0,0,145.92,559Zm.11,35a15.08,15.08,0,1,1,15.08-15.08A15.08,15.08,0,0,1,146,594Z"/><path class="cls-1" d="M153.4,588.33h0v-9.1l3.34,1.32V585A3.35,3.35,0,0,1,153.4,588.33Z"/><path class="cls-1" d="M137.78,588.33h0v-9.1l-3.33,1.32V585A3.34,3.34,0,0,0,137.78,588.33Z"/><polygon class="cls-1" points="148.9 574.44 145.58 572.36 142.26 574.44 138.92 576.49 138.92 588.29 152.26 588.29 152.26 576.49 148.9 574.44"/><rect class="cls-1" x="145.06" y="567.26" width="1.06" height="7.2"/><rect class="cls-1" x="145.07" y="567.3" width="1.03" height="5.02" transform="translate(-424.23 715.41) rotate(-90)"/><text class="cls-2" transform="translate(185.9 592.47)">Ig<tspan class="cls-3" x="16.84" y="0">r</tspan><tspan x="24.46" y="0">eja </tspan><tspan class="cls-20" x="55.67" y="0">T</tspan><tspan x="65.64" y="0">enda de Milag</tspan><tspan class="cls-3" x="190.21" y="0">r</tspan><tspan x="197.84" y="0">es</tspan></text><path class="cls-1" d="M149.92,644a19.67,19.67,0,0,0-19.67,19.67c0,10.93,15.43,31.52,19,36.94a.85.85,0,0,0,1.43,0c3.55-5.32,19-25.59,19-37A19.67,19.67,0,0,0,149.92,644Zm.11,35a15.08,15.08,0,1,1,15.08-15.08A15.08,15.08,0,0,1,150,679Z"/><path class="cls-1" d="M157.4,673.33h0v-9.1l3.34,1.32V670A3.35,3.35,0,0,1,157.4,673.33Z"/><path class="cls-1" d="M141.78,673.33h0v-9.1l-3.33,1.32V670A3.34,3.34,0,0,0,141.78,673.33Z"/><polygon class="cls-1" points="152.9 659.44 149.58 657.36 146.26 659.44 142.92 661.49 142.92 673.29 156.26 673.29 156.26 661.49 152.9 659.44"/><rect class="cls-1" x="149.06" y="652.26" width="1.06" height="7.2"/><rect class="cls-1" x="149.07" y="652.3" width="1.03" height="5.02" transform="translate(-505.23 804.41) rotate(-90)"/><text class="cls-2" transform="translate(185.9 678.47)">Ig<tspan class="cls-3" x="16.84" y="0">r</tspan><tspan x="24.46" y="0">eja Shekinah de Deus</tspan></text><path class="cls-1" d="M749.92,198a19.67,19.67,0,0,0-19.67,19.67c0,10.93,15.43,31.52,19,36.94a.85.85,0,0,0,1.43,0c3.55-5.32,19-25.59,19-37A19.67,19.67,0,0,0,749.92,198Zm.11,35a15.08,15.08,0,1,1,15.08-15.08A15.08,15.08,0,0,1,750,233Z"/><path class="cls-1" d="M757.4,227.33h0v-9.1l3.34,1.32V224A3.35,3.35,0,0,1,757.4,227.33Z"/><path class="cls-1" d="M741.78,227.33h0v-9.1l-3.33,1.32V224A3.34,3.34,0,0,0,741.78,227.33Z"/><polygon class="cls-1" points="752.9 213.44 749.58 211.35 746.26 213.44 742.92 215.49 742.92 227.29 756.26 227.29 756.26 215.49 752.9 213.44"/><rect class="cls-1" x="749.06" y="206.26" width="1.06" height="7.2"/><rect class="cls-1" x="749.07" y="206.3" width="1.03" height="5.02" transform="translate(540.77 958.41) rotate(-90)"/><text class="cls-2" transform="translate(789.9 228.97)">Ig<tspan class="cls-3" x="16.84" y="0">r</tspan><tspan x="24.46" y="0">eja Uni</tspan><tspan class="cls-21" x="86.69" y="0">v</tspan><tspan class="cls-22" x="96.96" y="0">e</tspan><tspan class="cls-23" x="107.6" y="0">r</tspan><tspan class="cls-15" x="115.31" y="0">sal</tspan></text><path class="cls-1" d="M749.92,288a19.67,19.67,0,0,0-19.67,19.67c0,10.93,15.43,31.52,19,36.94a.85.85,0,0,0,1.43,0c3.55-5.32,19-25.59,19-36.95A19.67,19.67,0,0,0,749.92,288Zm.11,35a15.08,15.08,0,1,1,15.08-15.08A15.08,15.08,0,0,1,750,323Z"/><path class="cls-1" d="M757.4,317.33h0v-9.1l3.34,1.32V314A3.35,3.35,0,0,1,757.4,317.33Z"/><path class="cls-1" d="M741.78,317.33h0v-9.1l-3.33,1.32V314A3.34,3.34,0,0,0,741.78,317.33Z"/><polygon class="cls-1" points="752.9 303.44 749.58 301.36 746.26 303.44 742.92 305.49 742.92 317.29 756.26 317.29 756.26 305.49 752.9 303.44"/><rect class="cls-1" x="749.06" y="296.26" width="1.06" height="7.2"/><rect class="cls-1" x="749.07" y="296.3" width="1.03" height="5.02" transform="translate(450.77 1048.41) rotate(-90)"/><text class="cls-2" transform="translate(789.9 321.47)">Ig<tspan class="cls-3" x="16.84" y="0">r</tspan><tspan x="24.46" y="0">eja Mundial</tspan></text><path class="cls-1" d="M749.92,383a19.67,19.67,0,0,0-19.67,19.67c0,10.93,15.43,31.52,19,36.94a.85.85,0,0,0,1.43,0c3.55-5.32,19-25.59,19-36.95A19.67,19.67,0,0,0,749.92,383Zm.11,35a15.08,15.08,0,1,1,15.08-15.08A15.08,15.08,0,0,1,750,418Z"/><path class="cls-1" d="M757.4,412.33h0v-9.1l3.34,1.32V409A3.35,3.35,0,0,1,757.4,412.33Z"/><path class="cls-1" d="M741.78,412.33h0v-9.1l-3.33,1.32V409A3.34,3.34,0,0,0,741.78,412.33Z"/><polygon class="cls-1" points="752.9 398.44 749.58 396.36 746.26 398.44 742.92 400.49 742.92 412.29 756.26 412.29 756.26 400.49 752.9 398.44"/><rect class="cls-1" x="749.06" y="391.26" width="1.06" height="7.2"/><rect class="cls-1" x="749.07" y="391.3" width="1.03" height="5.02" transform="translate(355.77 1143.41) rotate(-90)"/><text class="cls-2" transform="translate(789.9 415.22)">Ig<tspan class="cls-3" x="16.84" y="0">r</tspan><tspan x="24.46" y="0">eja </tspan><tspan class="cls-24" x="55.67" y="0">A</tspan><tspan x="67.77" y="0">ssembléia de Deus</tspan></text><path class="cls-1" d="M749.92,473.5a19.67,19.67,0,0,0-19.67,19.67c0,10.93,15.43,31.52,19,36.94a.85.85,0,0,0,1.43,0c3.55-5.32,19-25.59,19-36.95A19.67,19.67,0,0,0,749.92,473.5Zm.11,35a15.08,15.08,0,1,1,15.08-15.08A15.08,15.08,0,0,1,750,508.47Z"/><path class="cls-1" d="M757.4,502.83h0v-9.1l3.34,1.32v4.44A3.35,3.35,0,0,1,757.4,502.83Z"/><path class="cls-1" d="M741.78,502.83h0v-9.1l-3.33,1.32v4.44A3.34,3.34,0,0,0,741.78,502.83Z"/><polygon class="cls-1" points="752.9 488.94 749.58 486.86 746.26 488.94 742.92 490.99 742.92 502.79 756.26 502.79 756.26 490.99 752.9 488.94"/><rect class="cls-1" x="749.06" y="481.76" width="1.06" height="7.2"/><rect class="cls-1" x="749.07" y="481.8" width="1.03" height="5.02" transform="translate(265.27 1233.91) rotate(-90)"/><text class="cls-2" transform="translate(789.9 506.97)">Ig<tspan class="cls-3" x="16.84" y="0">r</tspan><tspan x="24.46" y="0">eja B</tspan><tspan class="cls-4" x="68.21" y="0">a</tspan><tspan class="cls-11" x="78.71" y="0">ti</tspan><tspan class="cls-7" x="91.79" y="0">s</tspan><tspan class="cls-25" x="100.42" y="0">t</tspan><tspan x="107.56" y="0">a de Bebedou</tspan><tspan class="cls-3" x="229.99" y="0">r</tspan><tspan class="cls-5" x="237.61" y="0">o</tspan></text><path class="cls-1" d="M753.92,559a19.67,19.67,0,0,0-19.67,19.67c0,10.93,15.43,31.52,19,36.94a.85.85,0,0,0,1.43,0c3.55-5.32,19-25.59,19-37A19.67,19.67,0,0,0,753.92,559Zm.11,35a15.08,15.08,0,1,1,15.08-15.08A15.08,15.08,0,0,1,754,594Z"/><path class="cls-1" d="M761.4,588.33h0v-9.1l3.34,1.32V585A3.35,3.35,0,0,1,761.4,588.33Z"/><path class="cls-1" d="M745.78,588.33h0v-9.1l-3.33,1.32V585A3.34,3.34,0,0,0,745.78,588.33Z"/><polygon class="cls-1" points="756.9 574.44 753.58 572.36 750.26 574.44 746.92 576.49 746.92 588.29 760.26 588.29 760.26 576.49 756.9 574.44"/><rect class="cls-1" x="753.06" y="567.26" width="1.06" height="7.2"/><rect class="cls-1" x="753.07" y="567.3" width="1.03" height="5.02" transform="translate(183.77 1323.41) rotate(-90)"/><text class="cls-2" transform="translate(789.9 592.47)">Ig<tspan class="cls-3" x="16.84" y="0">r</tspan><tspan x="24.46" y="0">eja do </tspan><tspan class="cls-3" x="83.24" y="0">E</tspan><tspan class="cls-18" x="94.33" y="0">v</tspan><tspan x="104.31" y="0">an</tspan><tspan class="cls-4" x="126.9" y="0">g</tspan><tspan x="137.49" y="0">élio Quad</tspan><tspan class="cls-9" x="223.56" y="0">r</tspan><tspan x="230.85" y="0">angular</tspan></text><text class="cls-26" transform="translate(136.29 131.08)">Ig<tspan class="cls-27" x="32.08" y="0">r</tspan><tspan x="46.6" y="0">ejas em Bebedou</tspan><tspan class="cls-27" x="338.99" y="0">r</tspan><tspan x="353.51" y="0">o</tspan></text><polyline class="cls-28" points="764.81 255.37 774.5 240.5 937.5 240.5"/><polyline class="cls-28" points="764.81 348.37 774.5 333.5 926.5 333.5"/><polyline class="cls-28" points="764.81 441.37 774.5 426.5 1034.5 426.5"/><polyline class="cls-28" points="764.81 534.37 774.5 519.5 1046.5 519.5"/><polyline class="cls-28" points="764.81 619.37 774.5 604.5 1101.5 604.5"/><polyline class="cls-28" points="160.81 255.37 170.5 240.5 645.5 240.5"/><polyline class="cls-28" points="160.81 348.37 170.5 333.5 381.5 333.5"/><polyline class="cls-28" points="160.81 441.37 170.5 426.5 421.5 426.5"/><polyline class="cls-28" points="160.81 534.37 170.5 519.5 407.5 519.5"/><polyline class="cls-28" points="160.81 617.37 170.5 602.5 404.5 602.5"/><polyline class="cls-28" points="160.81 702.37 170.5 687.5 407.5 687.5"/></svg>